<svg xmlns="http://www.w3.org/2000/svg" xmlns:xlink="http://www.w3.org/1999/xlink" width="14" height="23" viewBox="0 0 14 23">
  <metadata><?xpacket begin="﻿" id="W5M0MpCehiHzreSzNTczkc9d"?>
<x:xmpmeta xmlns:x="adobe:ns:meta/" x:xmptk="Adobe XMP Core 5.6-c138 79.159824, 2016/09/14-01:09:01        ">
   <rdf:RDF xmlns:rdf="http://www.w3.org/1999/02/22-rdf-syntax-ns#">
      <rdf:Description rdf:about=""/>
   </rdf:RDF>
</x:xmpmeta>
                                                                                                    
                                                                                                    
                                                                                                    
                                                                                                    
                                                                                                    
                                                                                                    
                                                                                                    
                                                                                                    
                                                                                                    
                                                                                                    
                                                                                                    
                                                                                                    
                                                                                                    
                                                                                                    
                                                                                                    
                                                                                                    
                                                                                                    
                                                                                                    
                                                                                                    
                                                                                                    
                           
<?xpacket end="w"?></metadata>
<defs>
    <style>
      .cls-1 {
        fill-rule: evenodd;
        fill: url(#linear-gradient);
      }
    </style>
    <linearGradient id="linear-gradient" x1="600" x2="600" y2="1500" gradientUnits="userSpaceOnUse">
      <stop offset="0.46" stop-color="#3c6"/>
      <stop offset="0.54" stop-color="#2cb25a"/>
    </linearGradient>
  </defs>
  <path id="Icon:_Tip" data-name="Icon: Tip" class="cls-1" d="M143.415,887a13.638,13.638,0,0,1,1.6-4.653,6.963,6.963,0,0,0,.986-3.229c0-3.884-2.569-7.118-6.6-7.118h-0.39a6.727,6.727,0,0,0-5.977,10.323A46.419,46.419,0,0,1,134.66,887h8.755ZM135,888v2a3,3,0,0,0,3,3v1a1,1,0,0,0,2,0v-1a3,3,0,0,0,3-3v-2h-8Zm1,1h6v1h-6v-1Zm2,2h2v1h-2v-1Z" transform="translate(-132 -872)"/>
</svg>
