<svg xmlns="http://www.w3.org/2000/svg" width="20" height="20" viewBox="0 0 20 20">
  <metadata><?xpacket begin="﻿" id="W5M0MpCehiHzreSzNTczkc9d"?>
<x:xmpmeta xmlns:x="adobe:ns:meta/" x:xmptk="Adobe XMP Core 5.6-c138 79.159824, 2016/09/14-01:09:01        ">
   <rdf:RDF xmlns:rdf="http://www.w3.org/1999/02/22-rdf-syntax-ns#">
      <rdf:Description rdf:about=""/>
   </rdf:RDF>
</x:xmpmeta>
                                                                                                    
                                                                                                    
                                                                                                    
                                                                                                    
                                                                                                    
                                                                                                    
                                                                                                    
                                                                                                    
                                                                                                    
                                                                                                    
                                                                                                    
                                                                                                    
                                                                                                    
                                                                                                    
                                                                                                    
                                                                                                    
                                                                                                    
                                                                                                    
                                                                                                    
                                                                                                    
                           
<?xpacket end="w"?></metadata>
<defs>
    <style>
      .cls-1 {
        fill: #fff;
        fill-rule: evenodd;
      }
    </style>
  </defs>
  <path id="Icon:_Settings" data-name="Icon: Settings" class="cls-1" d="M1062.8,24a3.2,3.2,0,1,1,3.2,3.2A3.2,3.2,0,0,1,1062.8,24Zm-4.13,2a7.468,7.468,0,0,0,.74,1.79l-0.99.986a1.185,1.185,0,0,0,.02,1.664l1.12,1.12a1.172,1.172,0,0,0,1.66.017l0.99-.986a7.677,7.677,0,0,0,1.79.744v1.49A1.19,1.19,0,0,0,1065.2,34h1.6a1.19,1.19,0,0,0,1.2-1.176v-1.49a7.686,7.686,0,0,0,1.79-.744l0.99,0.986a1.172,1.172,0,0,0,1.66-.017l1.12-1.12a1.185,1.185,0,0,0,.02-1.664l-0.99-.986a7.468,7.468,0,0,0,.74-1.79h1.49a1.191,1.191,0,0,0,1.18-1.2V23.2a1.191,1.191,0,0,0-1.18-1.2h-1.49a7.468,7.468,0,0,0-.74-1.79l0.99-.986a1.185,1.185,0,0,0-.02-1.664l-1.12-1.12a1.172,1.172,0,0,0-1.66-.017l-0.99.986a7.677,7.677,0,0,0-1.79-.744V15.177A1.19,1.19,0,0,0,1066.8,14h-1.6a1.19,1.19,0,0,0-1.2,1.177v1.489a7.681,7.681,0,0,0-1.79.744l-0.99-.986a1.172,1.172,0,0,0-1.66.017l-1.12,1.12a1.185,1.185,0,0,0-.02,1.664l0.99,0.986a7.468,7.468,0,0,0-.74,1.79h-1.49a1.191,1.191,0,0,0-1.18,1.2v1.6a1.191,1.191,0,0,0,1.18,1.2h1.49Z" transform="translate(-1056 -14)"/>
</svg>
