<svg xmlns="http://www.w3.org/2000/svg" xmlns:xlink="http://www.w3.org/1999/xlink" width="46" height="51" viewBox="0 0 46 51">
  <metadata><?xpacket begin="﻿" id="W5M0MpCehiHzreSzNTczkc9d"?>
<x:xmpmeta xmlns:x="adobe:ns:meta/" x:xmptk="Adobe XMP Core 5.6-c138 79.159824, 2016/09/14-01:09:01        ">
   <rdf:RDF xmlns:rdf="http://www.w3.org/1999/02/22-rdf-syntax-ns#">
      <rdf:Description rdf:about=""/>
   </rdf:RDF>
</x:xmpmeta>
                                                                                                    
                                                                                                    
                                                                                                    
                                                                                                    
                                                                                                    
                                                                                                    
                                                                                                    
                                                                                                    
                                                                                                    
                                                                                                    
                                                                                                    
                                                                                                    
                                                                                                    
                                                                                                    
                                                                                                    
                                                                                                    
                                                                                                    
                                                                                                    
                                                                                                    
                                                                                                    
                           
<?xpacket end="w"?></metadata>
<defs>
    <style>
      .cls-1 {
        fill-rule: evenodd;
        fill: url(#linear-gradient);
        filter: url(#filter);
      }
    </style>
    <linearGradient id="linear-gradient" x1="600" x2="600" y2="155" gradientUnits="userSpaceOnUse">
      <stop offset="0.345" stop-color="#229eff"/>
      <stop offset="0.655" stop-color="#1e87da"/>
    </linearGradient>
    <filter id="filter" x="713" y="69" width="46" height="51" filterUnits="userSpaceOnUse">
      <feOffset result="offset" dy="1" in="SourceAlpha"/>
      <feGaussianBlur result="blur" stdDeviation="1.414"/>
      <feFlood result="flood" flood-color="#0c2b45" flood-opacity="0.5"/>
      <feComposite result="composite" operator="in" in2="blur"/>
      <feBlend result="blend" in="SourceGraphic"/>
    </filter>
  </defs>
  <path id="Icon:_Page_Creator" data-name="Icon: Page Creator" class="cls-1" d="M736,103v6h6v-2h-4v-4h-2Zm3-2v2h1v1h1v1h1v1h2v-1h1v-1h1v-1h1v-1h1v-1h1v-1h1V99h1V98h1V97h1V96h1V95h1V94h1V93h1V91h-1V90h-1V89h-1V88h-2v1h-1v1h-1v1h-1v1h-1v1h-1v1h-1v1h-1v1h-1v1h-1v1h-1v1h-1v1h-1v1h-1ZM714,73v40a4,4,0,0,0,4,4h30a4,4,0,0,0,4-4V100h-1v1h-1v1h-1v11a1,1,0,0,1-1,1H718a1,1,0,0,1-1-1V73a1,1,0,0,1,1-1h18V85h13v4h1V88h1V87h1V82L739,69H718A4,4,0,0,0,714,73Z" transform="translate(-713 -69)"/>
</svg>
