<svg xmlns="http://www.w3.org/2000/svg" width="19" height="23" viewBox="0 0 19 23">
  <metadata><?xpacket begin="﻿" id="W5M0MpCehiHzreSzNTczkc9d"?>
<x:xmpmeta xmlns:x="adobe:ns:meta/" x:xmptk="Adobe XMP Core 5.6-c138 79.159824, 2016/09/14-01:09:01        ">
   <rdf:RDF xmlns:rdf="http://www.w3.org/1999/02/22-rdf-syntax-ns#">
      <rdf:Description rdf:about=""/>
   </rdf:RDF>
</x:xmpmeta>
                                                                                                    
                                                                                                    
                                                                                                    
                                                                                                    
                                                                                                    
                                                                                                    
                                                                                                    
                                                                                                    
                                                                                                    
                                                                                                    
                                                                                                    
                                                                                                    
                                                                                                    
                                                                                                    
                                                                                                    
                                                                                                    
                                                                                                    
                                                                                                    
                                                                                                    
                                                                                                    
                           
<?xpacket end="w"?></metadata>
<defs>
    <style>
      .cls-1 {
        fill: #3c6;
        fill-rule: evenodd;
      }
    </style>
  </defs>
  <path id="Icon:_Article" data-name="Icon: Article" class="cls-1" d="M136,703h9v6h6v13H136V703Zm-2,1v17a3,3,0,0,0,3,3h13a3,3,0,0,0,3-3V705h-1v-1h-1v-1h-1v-1h-1v-1H137A3,3,0,0,0,134,704Zm4,15h8v1h-8v-1Zm0-3h11v1H138v-1Zm0-3h11v1H138v-1Zm0-3h11v1H138v-1Zm0-4h5v2h-5v-2Z" transform="translate(-134 -701)"/>
</svg>
