<svg xmlns="http://www.w3.org/2000/svg" width="20" height="20" viewBox="0 0 20 20">
  <metadata><?xpacket begin="﻿" id="W5M0MpCehiHzreSzNTczkc9d"?>
<x:xmpmeta xmlns:x="adobe:ns:meta/" x:xmptk="Adobe XMP Core 5.6-c138 79.159824, 2016/09/14-01:09:01        ">
   <rdf:RDF xmlns:rdf="http://www.w3.org/1999/02/22-rdf-syntax-ns#">
      <rdf:Description rdf:about=""/>
   </rdf:RDF>
</x:xmpmeta>
                                                                                                    
                                                                                                    
                                                                                                    
                                                                                                    
                                                                                                    
                                                                                                    
                                                                                                    
                                                                                                    
                                                                                                    
                                                                                                    
                                                                                                    
                                                                                                    
                                                                                                    
                                                                                                    
                                                                                                    
                                                                                                    
                                                                                                    
                                                                                                    
                                                                                                    
                                                                                                    
                           
<?xpacket end="w"?></metadata>
<defs>
    <style>
      .cls-1 {
        fill: #fff;
        fill-rule: evenodd;
      }
    </style>
  </defs>
  <path id="Icon:_Help" data-name="Icon: Help" class="cls-1" d="M1020.1,29a1.1,1.1,0,1,0-1.14-1.1,1.133,1.133,0,0,0,1.14,1.1h0Zm-0.69-3.014,1.78-.494a0.842,0.842,0,0,1-.54-0.648c0.32-1.3,2.35-1.467,2.35-3.72,0-1.282-.92-2.123-2.65-2.123a4.756,4.756,0,0,0-3.35,1.255l1.24,1.331a2.42,2.42,0,0,1,1.88-.956,0.97,0.97,0,0,1,1.19.879c0,1.065-2.35,1.281-2.35,3.118a2.106,2.106,0,0,0,.45,1.359h0ZM1010,24a10,10,0,1,0,10-10A10,10,0,0,0,1010,24Zm2,0a8,8,0,1,1,8,8A8,8,0,0,1,1012,24Z" transform="translate(-1010 -14)"/>
</svg>
