<svg xmlns="http://www.w3.org/2000/svg" xmlns:xlink="http://www.w3.org/1999/xlink" width="43" height="51" viewBox="0 0 43 51">
  <metadata><?xpacket begin="﻿" id="W5M0MpCehiHzreSzNTczkc9d"?>
<x:xmpmeta xmlns:x="adobe:ns:meta/" x:xmptk="Adobe XMP Core 5.6-c138 79.159824, 2016/09/14-01:09:01        ">
   <rdf:RDF xmlns:rdf="http://www.w3.org/1999/02/22-rdf-syntax-ns#">
      <rdf:Description rdf:about=""/>
   </rdf:RDF>
</x:xmpmeta>
                                                                                                    
                                                                                                    
                                                                                                    
                                                                                                    
                                                                                                    
                                                                                                    
                                                                                                    
                                                                                                    
                                                                                                    
                                                                                                    
                                                                                                    
                                                                                                    
                                                                                                    
                                                                                                    
                                                                                                    
                                                                                                    
                                                                                                    
                                                                                                    
                                                                                                    
                                                                                                    
                           
<?xpacket end="w"?></metadata>
<defs>
    <style>
      .cls-1 {
        fill-rule: evenodd;
        fill: url(#linear-gradient);
        filter: url(#filter);
      }
    </style>
    <linearGradient id="linear-gradient" x1="600" x2="600" y2="155" gradientUnits="userSpaceOnUse">
      <stop offset="0.345" stop-color="#229eff"/>
      <stop offset="0.655" stop-color="#1e87da"/>
    </linearGradient>
    <filter id="filter" x="802" y="73" width="43" height="51" filterUnits="userSpaceOnUse">
      <feOffset result="offset" dy="1" in="SourceAlpha"/>
      <feGaussianBlur result="blur" stdDeviation="1.414"/>
      <feFlood result="flood" flood-color="#0c2b45" flood-opacity="0.5"/>
      <feComposite result="composite" operator="in" in2="blur"/>
      <feBlend result="blend" in="SourceGraphic"/>
    </filter>
  </defs>
  <path id="Icon:_Analytics" data-name="Icon: Analytics" class="cls-1" d="M803,106a3,3,0,0,1,3-3h6a3,3,0,0,1,3,3v12a3,3,0,0,1-3,3h-6a3,3,0,0,1-3-3V106Zm14-15a3,3,0,0,1,3-3h6a3,3,0,0,1,3,3v27a3,3,0,0,1-3,3h-6a3,3,0,0,1-3-3V91Zm14-15a3,3,0,0,1,3-3h6a3,3,0,0,1,3,3v42a3,3,0,0,1-3,3h-6a3,3,0,0,1-3-3V76Z" transform="translate(-802 -73)"/>
</svg>
