<svg xmlns="http://www.w3.org/2000/svg" xmlns:xlink="http://www.w3.org/1999/xlink" width="79" height="83" viewBox="0 0 79 83">
  <metadata><?xpacket begin="﻿" id="W5M0MpCehiHzreSzNTczkc9d"?>
<x:xmpmeta xmlns:x="adobe:ns:meta/" x:xmptk="Adobe XMP Core 5.6-c138 79.159824, 2016/09/14-01:09:01        ">
   <rdf:RDF xmlns:rdf="http://www.w3.org/1999/02/22-rdf-syntax-ns#">
      <rdf:Description rdf:about=""/>
   </rdf:RDF>
</x:xmpmeta>
                                                                                                    
                                                                                                    
                                                                                                    
                                                                                                    
                                                                                                    
                                                                                                    
                                                                                                    
                                                                                                    
                                                                                                    
                                                                                                    
                                                                                                    
                                                                                                    
                                                                                                    
                                                                                                    
                                                                                                    
                                                                                                    
                                                                                                    
                                                                                                    
                                                                                                    
                                                                                                    
                           
<?xpacket end="w"?></metadata>
<defs>
    <style>
      .cls-1 {
        fill: #32cc66;
        fill-rule: evenodd;
        filter: url(#filter);
      }
    </style>
    <filter id="filter" x="580" y="751" width="79" height="83" filterUnits="userSpaceOnUse">
      <feOffset result="offset" dy="1" in="SourceAlpha"/>
      <feGaussianBlur result="blur" stdDeviation="1.414"/>
      <feFlood result="flood" flood-opacity="0.14"/>
      <feComposite result="composite" operator="in" in2="blur"/>
      <feBlend result="blend" in="SourceGraphic"/>
    </filter>
  </defs>
  <path id="Path" class="cls-1" d="M606.225,758.723a13.636,13.636,0,0,0-.936,2.318c-0.98,3.523,0,9.268,0,9.268s-2.008-.338-1.567,3.089c0.391,5.262,3.036,6.13,3.134,6.179,1.958,7.079,3.917,10.04,3.917,10.04s0.708,3.138,0,4.634c-6.464,2.655-25.709,10.041-25.856,10.041C581.245,806.174,581,831,581,831h76s-0.245-24.826-3.918-26.708c-0.147,0-19.391-7.386-25.855-10.041-0.709-1.5,0-4.634,0-4.634s1.958-2.961,3.917-10.04c0.1-.049,2.742-0.917,3.134-6.179,0.441-3.427-1.567-3.089-1.567-3.089s0.98-5.745,0-9.268a13.636,13.636,0,0,0-.936-2.318h0.153c-0.145-1.816-.655-3.971-2.919-4.387s-2.536.212-3.645,0.059-2.43-3.395-4.49-3.395l-4.279.843c-2.06,0-1.743.611-2.853,0.765a17.745,17.745,0,0,0-3.1.458c-2.953.542-4.21,3.851-4.567,5.657h0.153Z" transform="translate(-580 -751)"/>
</svg>
