<?xml version="1.0" encoding="UTF-8"?>
<svg width="851px" height="191px" viewBox="0 0 851 191" version="1.1" xmlns="http://www.w3.org/2000/svg" xmlns:xlink="http://www.w3.org/1999/xlink">
    <!-- Generator: Sketch 46.2 (44496) - http://www.bohemiancoding.com/sketch -->
    <title>Arrow</title>
    <desc>Created with Sketch.</desc>
    <defs></defs>
    <g id="Assets" stroke="none" stroke-width="1" fill="none" fill-rule="evenodd">
        <g id="Arrow" fill="#FFB444">
            <path d="M766.365254,86.2945742 C673.645374,154.115935 539.253568,190.301083 423.544726,190.301083 C261.302262,190.301083 115.242412,130.750664 4.74248895,31.7067096 C-3.93913485,23.9182419 3.83956935,13.3039663 14.2575709,19.3692554 C133.508526,88.2244711 280.957526,129.647877 433.268192,129.647877 C535.989276,129.647877 648.989494,108.557059 752.891346,64.7902671 C768.587756,58.1735188 781.714384,74.9910271 766.365254,86.2945742 Z M808.253859,41.8890554 C796.465516,26.8331447 730.035004,34.7754934 700.217551,38.2977515 C691.133591,39.4027742 689.746777,31.5294976 697.929196,25.8662137 C750.837875,-11.2210516 837.655257,-0.516159401 847.779327,11.9153257 C857.903345,24.4159093 845.144296,111.09105 795.425379,152.460235 C787.797664,158.814109 780.516653,155.430021 783.914495,147.004194 C795.078676,119.240536 820.111499,57.0140382 808.253859,41.8890554 Z" id="Combined-Shape" transform="translate(426.000000, 95.301083) scale(-1, -1) rotate(-180.000000) translate(-426.000000, -95.301083) "></path>
        </g>
    </g>
</svg>