<?xml version="1.0" encoding="UTF-8"?>
<svg width="909px" height="988px" viewBox="0 0 909 988" version="1.1" xmlns="http://www.w3.org/2000/svg" xmlns:xlink="http://www.w3.org/1999/xlink">
    <!-- Generator: Sketch 46.2 (44496) - http://www.bohemiancoding.com/sketch -->
    <title>box-open</title>
    <desc>Created with Sketch.</desc>
    <defs>
        <radialGradient cx="48.3360291%" cy="0%" fx="48.3360291%" fy="0%" r="97.2755899%" gradientTransform="translate(0.483360,0.000000),scale(0.308342,1.000000),rotate(90.000000),scale(1.000000,2.790713),translate(-0.483360,-0.000000)" id="radialGradient-1">
            <stop stop-color="#66401E" offset="0%"></stop>
            <stop stop-color="#351D0C" offset="100%"></stop>
        </radialGradient>
        <path d="M60.6763577,258 L209.611165,258 L849.632084,258 L849.632084,258 C852.032953,258 854.094904,259.706459 854.543879,262.064974 L905.751659,531.064974 L905.751659,531.064974 C906.26806,533.777683 904.4876,536.395394 901.774891,536.911795 C901.466674,536.970468 901.153617,537 900.839865,537 L6,537 L6,537 C3.23857625,537 1,534.761424 1,532 C1,531.66551 1.03356495,531.331863 1.10019041,531.004075 L55.7765481,262.004075 L55.7765481,262.004075 C56.2501148,259.674194 58.2988355,258 60.6763577,258 Z" id="path-2"></path>
        <linearGradient x1="50%" y1="-1.11022302e-14%" x2="50%" y2="98.7902583%" id="linearGradient-3">
            <stop stop-color="#A16F40" offset="0%"></stop>
            <stop stop-color="#653B1E" offset="100%"></stop>
        </linearGradient>
        <rect id="path-4" x="0" y="0" width="100" height="106"></rect>
    </defs>
    <g id="Assets" stroke="none" stroke-width="1" fill="none" fill-rule="evenodd">
        <g id="box-open">
            <g id="Rectangle-7">
                <use fill="url(#radialGradient-1)" fill-rule="evenodd" xlink:href="#path-2"></use>
                <path stroke="#1E140C" stroke-width="2" d="M60.6763577,259 C58.7743399,259 57.1353634,260.339355 56.7565101,262.20326 L2.08015233,531.20326 C2.02685196,531.465491 2,531.732408 2,532 C2,534.209139 3.790861,536 6,536 L900.839865,536 C901.090867,536 901.341312,535.976374 901.587886,535.929436 C903.758053,535.516315 905.182421,533.422146 904.7693,531.251979 L853.56152,262.251979 C853.20234,260.365167 851.552779,259 849.632084,259 L60.6763577,259 Z"></path>
            </g>
            <path d="M89,285.5 L89,536.5" id="Line" stroke="#000000" stroke-width="10" stroke-linecap="square"></path>
            <path d="M820,285.5 L820,536.5" id="Line" stroke="#000000" stroke-width="10" stroke-linecap="square"></path>
            <polygon id="Rectangle-7" fill="url(#linearGradient-3)" points="305.245271 -8.01953816 252.198477 288.597196 1 538.515953 57.4723476 259.308616"></polygon>
            <polygon id="Rectangle-7" fill="#683C1E" transform="translate(758.660843, 268.815536) scale(-1, 1) translate(-758.660843, -268.815536) " points="912.245271 -9.90441871 859.198477 286.712315 608 536.631073 664.472348 257.423735"></polygon>
            <rect id="Rectangle-7" fill="#936240" x="1" y="537" width="907" height="451"></rect>
            <g id="Group-2" transform="translate(405.000000, 882.000000)">
                <mask id="mask-5" fill="white">
                    <use xlink:href="#path-4"></use>
                </mask>
                <use id="Mask" fill="#2C2C2C" xlink:href="#path-4"></use>
                <g mask="url(#mask-5)" id="Amazon.com-Logo">
                    <g transform="translate(13.000000, -9.000000)">
                        <g transform="translate(36.658453, 95.689653) rotate(-36.000000) translate(-36.658453, -95.689653) translate(-2.841547, 87.689653)">
                            <path d="M31.3198539,11.8923775 C28.3865663,13.9852253 24.1349448,15.1018352 20.474378,15.1018352 C15.3416727,15.1018352 10.7209208,13.2642141 7.22514343,10.2078921 C6.95049143,9.96755372 7.19657865,9.64001587 7.52616272,9.82718001 C11.2987879,11.9519307 15.9634869,13.2301841 20.7819897,13.2301841 C24.0316757,13.2301841 27.6065524,12.5793586 30.8935931,11.2287925 C31.3901651,11.0246112 31.8054393,11.5435699 31.3198539,11.8923775" id="path8" fill="#FF9900"></path>
                            <path d="M32.4391484,10.6347011 C32.0757052,10.1614985 30.0276035,10.4111241 29.1083095,10.5218275 C28.8282443,10.5565581 28.7854878,10.3091034 29.0377579,10.1311082 C30.6689714,8.96546702 33.3456152,9.30191844 33.6577477,9.69263614 C33.9698786,10.0855256 33.5765078,12.8096982 32.043637,14.1099188 C31.8084689,14.3096191 31.5839899,14.2032582 31.6887479,13.9384371 C32.0329478,13.065834 32.8047282,11.1100746 32.4391484,10.6347011" id="path10" fill="#FF9900"></path>
                            <path d="M29.1657931,1.89022722 L29.1657931,0.736035871 C29.1657931,0.561359427 29.2987122,0.444171624 29.458215,0.444171624 L34.6354163,0.444171624 C34.8015667,0.444171624 34.9344858,0.563570788 34.9344858,0.736035871 L34.9344858,1.72439538 C34.9322719,1.89022722 34.7927052,2.10691447 34.5445882,2.44963412 L31.8618366,6.27261787 C32.8587314,6.24829711 33.9110082,6.39643891 34.8148585,6.90499125 C35.018668,7.01996769 35.0740509,7.18801089 35.0895583,7.35384442 L35.0895583,8.58542414 C35.0895583,8.75346734 34.903471,8.95025318 34.7085231,8.84854406 C33.1157073,8.01496044 31.0000774,7.92430559 29.2388981,8.85738866 C29.0594576,8.95467675 28.8711556,8.76010058 28.8711556,8.59205738 L28.8711556,7.42238818 C28.8711556,7.23444526 28.8733695,6.913835 29.0616715,6.628604 L32.1697659,2.17988095 L29.4648609,2.17988095 C29.2987122,2.17988095 29.1657931,2.06269399 29.1657931,1.89022722" id="path12" fill="#FFFFFF"></path>
                            <path d="M10.3046631,8.88343248 L8.72196516,8.88343248 C8.57059727,8.87226799 8.45039144,8.75837774 8.43926086,8.61322232 L8.43926086,0.464494627 C8.43926086,0.301475337 8.57504814,0.171952076 8.74422547,0.171952076 L10.2200745,0.171952076 C10.3736712,0.178647193 10.4961008,0.297007666 10.5072322,0.444394795 L10.5072322,1.50960413 L10.5361705,1.50960413 C10.9212712,0.480125085 11.6447257,0 12.6197225,0 C13.6102998,0 14.2291325,0.480125085 14.6743361,1.50960413 C15.0572113,0.480125085 15.9275837,0 16.8602861,0 C17.5236394,0 18.249321,0.274676128 18.6922983,0.891022999 C19.1931523,1.57659704 19.0907551,2.5725775 19.0907551,3.44573663 L19.0885296,8.58865908 C19.0885296,8.75167837 18.9527423,8.88343248 18.783565,8.88343248 L17.2030916,8.88343248 C17.0450457,8.87226799 16.9181627,8.74497899 16.9181627,8.58865908 L16.9181627,4.26976502 C16.9181627,3.92586172 16.9493256,3.0683356 16.8736421,2.74229617 C16.7556634,2.19517817 16.4017265,2.04108996 15.943166,2.04108996 C15.5602907,2.04108996 15.1596077,2.29790137 14.9971084,2.70880014 C14.8346091,3.11969805 14.8501914,3.8075038 14.8501914,4.26976502 L14.8501914,8.58865908 C14.8501914,8.75167837 14.7144041,8.88343248 14.5452268,8.88343248 L12.9647551,8.88343248 C12.8044821,8.87226799 12.6798246,8.74497899 12.6798246,8.58865908 L12.6775991,4.26976502 C12.6775991,3.3608773 12.8267407,2.02322524 11.7026032,2.02322524 C10.5651071,2.02322524 10.6096277,3.32737871 10.6096277,4.26976502 L10.6096277,8.58865908 C10.6096277,8.75167837 10.4738405,8.88343248 10.3046631,8.88343248" id="path14" fill="#FFFFFF"></path>
                            <path d="M39.5026373,9.50225894e-15 C41.8267587,9.50225894e-15 43.0846475,1.98529601 43.0846475,4.50964645 C43.0846475,6.94853604 41.6945796,8.88343248 39.5026373,8.88343248 C37.2203711,8.88343248 35.9779016,6.89813647 35.9779016,4.42418643 C35.9779016,1.93489645 37.235792,0 39.5026373,0 M39.5158541,1.63250157 C38.361505,1.63250157 38.2888062,3.19707125 38.2888062,4.17219028 C38.2888062,5.14949918 38.2733853,7.23559348 39.5026373,7.23559348 C40.7164675,7.23559348 40.7737446,5.55269486 40.7737446,4.52717543 C40.7737446,3.85226392 40.745106,3.04587423 40.5402297,2.40602067 C40.3639928,1.8494381 40.0137239,1.63250157 39.5158541,1.63250157" id="path16" fill="#FFFFFF"></path>
                            <path d="M46.3262938,8.88343248 L44.7114012,8.88343248 C44.5494544,8.87226799 44.4194419,8.74497899 44.4194419,8.58865908 L44.4171624,0.437695418 C44.4308479,0.288074881 44.5654228,0.171952076 44.729649,0.171952076 L46.2327777,0.171952076 C46.3741937,0.178647193 46.4905208,0.272443571 46.522455,0.399732571 L46.522455,1.64582421 L46.5521053,1.64582421 C47.0060104,0.531487537 47.6423861,0 48.762319,0 C49.489933,0 50.1993009,0.256811409 50.6554855,0.96025017 C51.0797368,1.61232733 51.0797368,2.70880014 51.0797368,3.49709738 L51.0797368,8.62662278 C51.0614898,8.76954224 50.9269148,8.88343248 50.7672519,8.88343248 L49.1409533,8.88343248 C48.9926921,8.87226799 48.8695222,8.76507712 48.8535573,8.62662278 L48.8535573,4.20053785 C48.8535573,3.30951485 48.9584793,2.00535967 47.8385456,2.00535967 C47.4439472,2.00535967 47.0812795,2.26440534 46.9010867,2.65743683 C46.6729957,3.15542834 46.6433436,3.65118559 46.6433436,4.20053785 L46.6433436,8.58865908 C46.6410642,8.75167837 46.4996456,8.88343248 46.3262955,8.88343248" id="path18" fill="#FFFFFF"></path>
                            <path d="M51.5239084,8.21617303 C51.5239084,7.84747635 51.8227717,7.55091761 52.1901655,7.55091761 C52.5575592,7.55091761 52.8564233,7.84747635 52.8564233,8.21617303 C52.8564233,8.58286417 52.5575592,8.88343248 52.1901655,8.88343248 C51.8227717,8.88343248 51.5239084,8.58286417 51.5239084,8.21617303" id="path20" fill="#FFFFFF"></path>
                            <path d="M68.2518565,8.88343248 C68.0872641,8.87676738 67.9582585,8.75021436 67.9582585,8.59035279 L67.9582585,0.488467849 C67.9671556,0.344146879 68.0894877,0.230911351 68.2407357,0.222031611 L68.8212592,0.222031611 C68.9814043,0.222031611 69.110409,0.337486015 69.1237543,0.488467849 L69.1237543,1.6696689 C69.5374617,0.73270008 70.3070453,0 71.2790336,0 L71.3390874,0 L71.3969176,0 C72.4289597,0 73.1829735,0.759343535 73.4632271,1.86283395 C73.9013997,0.772665262 74.7243653,0 75.8097894,0 L75.8653951,0 L75.9298979,0 C76.697257,0 77.4357011,0.492907296 77.8182689,1.2433694 C78.1874905,1.96052718 78.1741452,2.91525718 78.1741452,3.71678646 L78.1719224,8.59035279 C78.1741452,8.74577238 78.0473658,8.87232963 77.889446,8.88343248 L77.1954859,8.88343248 C77.0442379,8.87676738 76.9219058,8.77019695 76.9018879,8.63031797 L76.9018879,3.71678646 C76.9018879,3.13728879 76.930803,2.52226368 76.6950342,1.9938315 C76.4548174,1.45429816 75.9944015,1.11681214 75.5006233,1.0923901 C74.9490141,1.11903271 74.4418898,1.52090849 74.1127032,2.0626624 C73.6856514,2.76205647 73.7012212,3.39262217 73.7012212,4.20969461 L73.7012212,8.63475742 C73.6812033,8.76797554 73.5633185,8.87232963 73.418744,8.88343248 L72.7292329,8.88343248 C72.5646396,8.87676738 72.4334104,8.75021436 72.4334104,8.59035279 L72.4289648,3.39262217 C72.4289648,2.91525718 72.4000497,2.35352067 72.1798516,1.92500229 C71.9240649,1.43653698 71.4658736,1.11681214 70.9854398,1.0923901 C70.4872126,1.12125413 69.9845364,1.5009259 69.6864903,1.94276601 C69.301698,2.50672138 69.2282989,3.20389658 69.2282989,3.92105521 L69.2282989,8.59035279 C69.2282989,8.74577238 69.1015178,8.87232963 68.9435972,8.88343248 L68.2518616,8.88343248" id="path22" fill="#FFFFFF"></path>
                            <path d="M63.5667115,8.88343248 C61.3847784,8.88343248 60.4073409,6.64132947 60.4073409,4.39922729 C60.4073409,2.04164207 61.5556136,0 63.7526842,0 L63.8089086,0 L63.8694577,0 C66.0059791,0 67.0699152,2.17455686 67.0699152,4.41665904 C67.0699152,6.79167434 65.8913684,8.88343248 63.6813231,8.88343248 L63.6250987,8.88343248 L63.5667115,8.88343248 M63.7267347,7.79615488 C64.444675,7.77218561 65.0112422,7.32332934 65.346426,6.57596333 C65.6470094,5.90485685 65.7053957,5.13569991 65.7053957,4.39922729 C65.7053957,3.59738604 65.6188972,2.76068461 65.2447892,2.07432556 C64.9096062,1.47512442 64.3343889,1.09381596 63.724572,1.07202669 C63.0455559,1.09599347 62.4379017,1.56010231 62.1329937,2.27478567 C61.8583598,2.89359856 61.7740231,3.71504742 61.7740231,4.39922729 C61.7740231,5.16838423 61.8734964,6.0573809 62.1892173,6.7263082 C62.4962889,7.36037201 63.0866428,7.77218561 63.7267347,7.79615488" id="path24" fill="#FFFFFF"></path>
                            <path d="M56.5194025,7.76129056 C57.5263924,7.73078458 58.0554499,6.93984004 58.2732974,5.91574941 C58.3177564,5.7871938 58.4177886,5.68914251 58.5645021,5.68914251 L59.2291596,5.686965 C59.3869874,5.69349754 59.5314786,5.81116308 59.5181411,5.95497292 C59.2113757,7.70028111 58.1376991,8.88343248 56.6083204,8.88343248 L56.5460784,8.88343248 L56.4882819,8.88343248 C54.260901,8.88343248 53.3005949,6.69144471 53.3005949,4.46677261 C53.3005949,2.25953476 54.2742402,0 56.5016194,0 L56.5616382,0 L56.6216579,0 C58.1688197,0 59.2713954,1.16789798 59.5114723,2.91320866 C59.5114723,3.04394344 59.3869874,3.15724564 59.2402739,3.17249821 L58.5444958,3.16378234 C58.3977823,3.14417224 58.3021956,3.02215417 58.2799662,2.88488269 C58.1132464,1.91090729 57.5419523,1.13521532 56.5905364,1.10470935 C55.0767176,1.1526454 54.6454699,2.9785748 54.6454699,4.38397389 C54.6454699,5.73708023 55.0055853,7.71335616 56.5194025,7.76129222" id="path26" fill="#FFFFFF"></path>
                            <path d="M25.087099,4.96317856 C25.087099,5.56881701 25.1026535,6.07388043 24.7915657,6.61174081 C24.5404739,7.04902617 24.1405042,7.31795594 23.6983155,7.31795594 C23.0916945,7.31795594 22.7361662,6.86317876 22.7361662,6.19194726 C22.7361662,4.86697608 23.9427413,4.62646988 25.087099,4.62646988 L25.087099,4.96317856 M26.6803123,8.75224721 C26.5758767,8.84407715 26.4247758,8.85063637 26.3070071,8.78941752 C25.7826018,8.36087891 25.6870538,8.16191473 25.4004091,7.75305378 C24.5338077,8.62324945 23.9182974,8.88343248 22.7961604,8.88343248 C21.4651498,8.88343248 20.4318947,8.07664317 20.4318947,6.4608787 C20.4318947,5.19931222 21.1251769,4.3400483 22.116213,3.92025559 C22.9739259,3.54856245 24.1716116,3.48297107 25.087099,3.38020937 L25.087099,3.1790585 C25.087099,2.80955205 25.1159857,2.37226752 24.8937807,2.0530515 C24.7026839,1.76662908 24.3338216,1.64856225 24.007181,1.64856225 C23.4050029,1.64856225 22.8694894,1.95247481 22.7383868,2.5821643 C22.7117224,2.72209631 22.6072868,2.85984081 22.462852,2.86640003 L20.931857,2.70460366 C20.8029776,2.67618176 20.6585444,2.57341839 20.6963197,2.37882841 C21.0474041,0.550979652 22.7272778,0 24.2293852,0 C24.9982171,0 26.0025854,0.201150865 26.6092064,0.7739932 C27.3780366,1.48020749 27.3047093,2.42255545 27.3047093,3.44798827 L27.3047093,5.87054372 C27.3047093,6.5986232 27.6113525,6.91783923 27.9002196,7.31139671 C28.000213,7.45132623 28.0224337,7.61968098 27.8935492,7.72462937 C27.5713515,7.98918744 26.9980611,8.48113242 26.6825295,8.75662141 L26.6803089,8.75224304" id="path28" fill="#FFFFFF"></path>
                            <path d="M4.65398845,4.96317856 C4.65398845,5.56881701 4.66953725,6.07388043 4.35853233,6.61174081 C4.10750435,7.04902617 3.70986092,7.31795594 3.265566,7.31795594 C2.65910344,7.31795594 2.30588976,6.86317876 2.30588976,6.19194726 C2.30588976,4.86697608 3.51214965,4.62646988 4.65398845,4.62646988 L4.65398845,4.96317856 M6.24678477,8.75224721 C6.14237563,8.84407715 5.99131415,8.85063637 5.87357625,8.78941752 C5.34930966,8.36087891 5.25600668,8.16191473 4.96721503,7.75305378 C4.10083998,8.62324945 3.48771473,8.88343248 2.36364741,8.88343248 C1.03520529,8.88343248 0,8.07664317 0,6.4608787 C0,5.19931222 0.695321205,4.3400483 1.6838767,3.92025559 C2.54136555,3.54856245 3.73874017,3.48297107 4.65398845,3.38020937 L4.65398845,3.1790585 C4.65398845,2.80955205 4.6828677,2.37226752 4.46294156,2.0530515 C4.26967199,1.76662908 3.90090866,1.64856225 3.57657253,1.64856225 C2.9745543,1.64856225 2.43695641,1.95247481 2.30588976,2.5821643 C2.2792314,2.72209631 2.17482226,2.85984081 2.0326486,2.86640003 L0.499831678,2.70460366 C0.370985923,2.67618176 0.228811413,2.57341839 0.26435504,2.37882841 C0.617569573,0.550979652 2.2947819,0 3.79649952,0 C4.56512811,0 5.5692341,0.201150865 6.17569666,0.7739932 C6.94432771,1.48020749 6.87101787,2.42255545 6.87101787,3.44798827 L6.87101787,5.87054372 C6.87101787,6.5986232 7.17758261,6.91783923 7.46637426,7.31139671 C7.56856166,7.45132623 7.59077654,7.61968098 7.46193078,7.72462937 C7.13981724,7.98918744 6.56667741,8.48113242 6.25122655,8.75662141 L6.24678477,8.75224304" id="path30" fill="#FFFFFF"></path>
                        </g>
                        <g transform="translate(36.658453, 29.689653) rotate(-36.000000) translate(-36.658453, -29.689653) translate(-2.841547, 21.689653)">
                            <path d="M31.3198539,11.8923775 C28.3865663,13.9852253 24.1349448,15.1018352 20.474378,15.1018352 C15.3416727,15.1018352 10.7209208,13.2642141 7.22514343,10.2078921 C6.95049143,9.96755372 7.19657865,9.64001587 7.52616272,9.82718001 C11.2987879,11.9519307 15.9634869,13.2301841 20.7819897,13.2301841 C24.0316757,13.2301841 27.6065524,12.5793586 30.8935931,11.2287925 C31.3901651,11.0246112 31.8054393,11.5435699 31.3198539,11.8923775" id="path8" fill="#FF9900"></path>
                            <path d="M32.4391484,10.6347011 C32.0757052,10.1614985 30.0276035,10.4111241 29.1083095,10.5218275 C28.8282443,10.5565581 28.7854878,10.3091034 29.0377579,10.1311082 C30.6689714,8.96546702 33.3456152,9.30191844 33.6577477,9.69263614 C33.9698786,10.0855256 33.5765078,12.8096982 32.043637,14.1099188 C31.8084689,14.3096191 31.5839899,14.2032582 31.6887479,13.9384371 C32.0329478,13.065834 32.8047282,11.1100746 32.4391484,10.6347011" id="path10" fill="#FF9900"></path>
                            <path d="M29.1657931,1.89022722 L29.1657931,0.736035871 C29.1657931,0.561359427 29.2987122,0.444171624 29.458215,0.444171624 L34.6354163,0.444171624 C34.8015667,0.444171624 34.9344858,0.563570788 34.9344858,0.736035871 L34.9344858,1.72439538 C34.9322719,1.89022722 34.7927052,2.10691447 34.5445882,2.44963412 L31.8618366,6.27261787 C32.8587314,6.24829711 33.9110082,6.39643891 34.8148585,6.90499125 C35.018668,7.01996769 35.0740509,7.18801089 35.0895583,7.35384442 L35.0895583,8.58542414 C35.0895583,8.75346734 34.903471,8.95025318 34.7085231,8.84854406 C33.1157073,8.01496044 31.0000774,7.92430559 29.2388981,8.85738866 C29.0594576,8.95467675 28.8711556,8.76010058 28.8711556,8.59205738 L28.8711556,7.42238818 C28.8711556,7.23444526 28.8733695,6.913835 29.0616715,6.628604 L32.1697659,2.17988095 L29.4648609,2.17988095 C29.2987122,2.17988095 29.1657931,2.06269399 29.1657931,1.89022722" id="path12" fill="#FFFFFF"></path>
                            <path d="M10.3046631,8.88343248 L8.72196516,8.88343248 C8.57059727,8.87226799 8.45039144,8.75837774 8.43926086,8.61322232 L8.43926086,0.464494627 C8.43926086,0.301475337 8.57504814,0.171952076 8.74422547,0.171952076 L10.2200745,0.171952076 C10.3736712,0.178647193 10.4961008,0.297007666 10.5072322,0.444394795 L10.5072322,1.50960413 L10.5361705,1.50960413 C10.9212712,0.480125085 11.6447257,0 12.6197225,0 C13.6102998,0 14.2291325,0.480125085 14.6743361,1.50960413 C15.0572113,0.480125085 15.9275837,0 16.8602861,0 C17.5236394,0 18.249321,0.274676128 18.6922983,0.891022999 C19.1931523,1.57659704 19.0907551,2.5725775 19.0907551,3.44573663 L19.0885296,8.58865908 C19.0885296,8.75167837 18.9527423,8.88343248 18.783565,8.88343248 L17.2030916,8.88343248 C17.0450457,8.87226799 16.9181627,8.74497899 16.9181627,8.58865908 L16.9181627,4.26976502 C16.9181627,3.92586172 16.9493256,3.0683356 16.8736421,2.74229617 C16.7556634,2.19517817 16.4017265,2.04108996 15.943166,2.04108996 C15.5602907,2.04108996 15.1596077,2.29790137 14.9971084,2.70880014 C14.8346091,3.11969805 14.8501914,3.8075038 14.8501914,4.26976502 L14.8501914,8.58865908 C14.8501914,8.75167837 14.7144041,8.88343248 14.5452268,8.88343248 L12.9647551,8.88343248 C12.8044821,8.87226799 12.6798246,8.74497899 12.6798246,8.58865908 L12.6775991,4.26976502 C12.6775991,3.3608773 12.8267407,2.02322524 11.7026032,2.02322524 C10.5651071,2.02322524 10.6096277,3.32737871 10.6096277,4.26976502 L10.6096277,8.58865908 C10.6096277,8.75167837 10.4738405,8.88343248 10.3046631,8.88343248" id="path14" fill="#FFFFFF"></path>
                            <path d="M39.5026373,9.50225894e-15 C41.8267587,9.50225894e-15 43.0846475,1.98529601 43.0846475,4.50964645 C43.0846475,6.94853604 41.6945796,8.88343248 39.5026373,8.88343248 C37.2203711,8.88343248 35.9779016,6.89813647 35.9779016,4.42418643 C35.9779016,1.93489645 37.235792,0 39.5026373,0 M39.5158541,1.63250157 C38.361505,1.63250157 38.2888062,3.19707125 38.2888062,4.17219028 C38.2888062,5.14949918 38.2733853,7.23559348 39.5026373,7.23559348 C40.7164675,7.23559348 40.7737446,5.55269486 40.7737446,4.52717543 C40.7737446,3.85226392 40.745106,3.04587423 40.5402297,2.40602067 C40.3639928,1.8494381 40.0137239,1.63250157 39.5158541,1.63250157" id="path16" fill="#FFFFFF"></path>
                            <path d="M46.3262938,8.88343248 L44.7114012,8.88343248 C44.5494544,8.87226799 44.4194419,8.74497899 44.4194419,8.58865908 L44.4171624,0.437695418 C44.4308479,0.288074881 44.5654228,0.171952076 44.729649,0.171952076 L46.2327777,0.171952076 C46.3741937,0.178647193 46.4905208,0.272443571 46.522455,0.399732571 L46.522455,1.64582421 L46.5521053,1.64582421 C47.0060104,0.531487537 47.6423861,0 48.762319,0 C49.489933,0 50.1993009,0.256811409 50.6554855,0.96025017 C51.0797368,1.61232733 51.0797368,2.70880014 51.0797368,3.49709738 L51.0797368,8.62662278 C51.0614898,8.76954224 50.9269148,8.88343248 50.7672519,8.88343248 L49.1409533,8.88343248 C48.9926921,8.87226799 48.8695222,8.76507712 48.8535573,8.62662278 L48.8535573,4.20053785 C48.8535573,3.30951485 48.9584793,2.00535967 47.8385456,2.00535967 C47.4439472,2.00535967 47.0812795,2.26440534 46.9010867,2.65743683 C46.6729957,3.15542834 46.6433436,3.65118559 46.6433436,4.20053785 L46.6433436,8.58865908 C46.6410642,8.75167837 46.4996456,8.88343248 46.3262955,8.88343248" id="path18" fill="#FFFFFF"></path>
                            <path d="M51.5239084,8.21617303 C51.5239084,7.84747635 51.8227717,7.55091761 52.1901655,7.55091761 C52.5575592,7.55091761 52.8564233,7.84747635 52.8564233,8.21617303 C52.8564233,8.58286417 52.5575592,8.88343248 52.1901655,8.88343248 C51.8227717,8.88343248 51.5239084,8.58286417 51.5239084,8.21617303" id="path20" fill="#FFFFFF"></path>
                            <path d="M68.2518565,8.88343248 C68.0872641,8.87676738 67.9582585,8.75021436 67.9582585,8.59035279 L67.9582585,0.488467849 C67.9671556,0.344146879 68.0894877,0.230911351 68.2407357,0.222031611 L68.8212592,0.222031611 C68.9814043,0.222031611 69.110409,0.337486015 69.1237543,0.488467849 L69.1237543,1.6696689 C69.5374617,0.73270008 70.3070453,0 71.2790336,0 L71.3390874,0 L71.3969176,0 C72.4289597,0 73.1829735,0.759343535 73.4632271,1.86283395 C73.9013997,0.772665262 74.7243653,0 75.8097894,0 L75.8653951,0 L75.9298979,0 C76.697257,0 77.4357011,0.492907296 77.8182689,1.2433694 C78.1874905,1.96052718 78.1741452,2.91525718 78.1741452,3.71678646 L78.1719224,8.59035279 C78.1741452,8.74577238 78.0473658,8.87232963 77.889446,8.88343248 L77.1954859,8.88343248 C77.0442379,8.87676738 76.9219058,8.77019695 76.9018879,8.63031797 L76.9018879,3.71678646 C76.9018879,3.13728879 76.930803,2.52226368 76.6950342,1.9938315 C76.4548174,1.45429816 75.9944015,1.11681214 75.5006233,1.0923901 C74.9490141,1.11903271 74.4418898,1.52090849 74.1127032,2.0626624 C73.6856514,2.76205647 73.7012212,3.39262217 73.7012212,4.20969461 L73.7012212,8.63475742 C73.6812033,8.76797554 73.5633185,8.87232963 73.418744,8.88343248 L72.7292329,8.88343248 C72.5646396,8.87676738 72.4334104,8.75021436 72.4334104,8.59035279 L72.4289648,3.39262217 C72.4289648,2.91525718 72.4000497,2.35352067 72.1798516,1.92500229 C71.9240649,1.43653698 71.4658736,1.11681214 70.9854398,1.0923901 C70.4872126,1.12125413 69.9845364,1.5009259 69.6864903,1.94276601 C69.301698,2.50672138 69.2282989,3.20389658 69.2282989,3.92105521 L69.2282989,8.59035279 C69.2282989,8.74577238 69.1015178,8.87232963 68.9435972,8.88343248 L68.2518616,8.88343248" id="path22" fill="#FFFFFF"></path>
                            <path d="M63.5667115,8.88343248 C61.3847784,8.88343248 60.4073409,6.64132947 60.4073409,4.39922729 C60.4073409,2.04164207 61.5556136,0 63.7526842,0 L63.8089086,0 L63.8694577,0 C66.0059791,0 67.0699152,2.17455686 67.0699152,4.41665904 C67.0699152,6.79167434 65.8913684,8.88343248 63.6813231,8.88343248 L63.6250987,8.88343248 L63.5667115,8.88343248 M63.7267347,7.79615488 C64.444675,7.77218561 65.0112422,7.32332934 65.346426,6.57596333 C65.6470094,5.90485685 65.7053957,5.13569991 65.7053957,4.39922729 C65.7053957,3.59738604 65.6188972,2.76068461 65.2447892,2.07432556 C64.9096062,1.47512442 64.3343889,1.09381596 63.724572,1.07202669 C63.0455559,1.09599347 62.4379017,1.56010231 62.1329937,2.27478567 C61.8583598,2.89359856 61.7740231,3.71504742 61.7740231,4.39922729 C61.7740231,5.16838423 61.8734964,6.0573809 62.1892173,6.7263082 C62.4962889,7.36037201 63.0866428,7.77218561 63.7267347,7.79615488" id="path24" fill="#FFFFFF"></path>
                            <path d="M56.5194025,7.76129056 C57.5263924,7.73078458 58.0554499,6.93984004 58.2732974,5.91574941 C58.3177564,5.7871938 58.4177886,5.68914251 58.5645021,5.68914251 L59.2291596,5.686965 C59.3869874,5.69349754 59.5314786,5.81116308 59.5181411,5.95497292 C59.2113757,7.70028111 58.1376991,8.88343248 56.6083204,8.88343248 L56.5460784,8.88343248 L56.4882819,8.88343248 C54.260901,8.88343248 53.3005949,6.69144471 53.3005949,4.46677261 C53.3005949,2.25953476 54.2742402,0 56.5016194,0 L56.5616382,0 L56.6216579,0 C58.1688197,0 59.2713954,1.16789798 59.5114723,2.91320866 C59.5114723,3.04394344 59.3869874,3.15724564 59.2402739,3.17249821 L58.5444958,3.16378234 C58.3977823,3.14417224 58.3021956,3.02215417 58.2799662,2.88488269 C58.1132464,1.91090729 57.5419523,1.13521532 56.5905364,1.10470935 C55.0767176,1.1526454 54.6454699,2.9785748 54.6454699,4.38397389 C54.6454699,5.73708023 55.0055853,7.71335616 56.5194025,7.76129222" id="path26" fill="#FFFFFF"></path>
                            <path d="M25.087099,4.96317856 C25.087099,5.56881701 25.1026535,6.07388043 24.7915657,6.61174081 C24.5404739,7.04902617 24.1405042,7.31795594 23.6983155,7.31795594 C23.0916945,7.31795594 22.7361662,6.86317876 22.7361662,6.19194726 C22.7361662,4.86697608 23.9427413,4.62646988 25.087099,4.62646988 L25.087099,4.96317856 M26.6803123,8.75224721 C26.5758767,8.84407715 26.4247758,8.85063637 26.3070071,8.78941752 C25.7826018,8.36087891 25.6870538,8.16191473 25.4004091,7.75305378 C24.5338077,8.62324945 23.9182974,8.88343248 22.7961604,8.88343248 C21.4651498,8.88343248 20.4318947,8.07664317 20.4318947,6.4608787 C20.4318947,5.19931222 21.1251769,4.3400483 22.116213,3.92025559 C22.9739259,3.54856245 24.1716116,3.48297107 25.087099,3.38020937 L25.087099,3.1790585 C25.087099,2.80955205 25.1159857,2.37226752 24.8937807,2.0530515 C24.7026839,1.76662908 24.3338216,1.64856225 24.007181,1.64856225 C23.4050029,1.64856225 22.8694894,1.95247481 22.7383868,2.5821643 C22.7117224,2.72209631 22.6072868,2.85984081 22.462852,2.86640003 L20.931857,2.70460366 C20.8029776,2.67618176 20.6585444,2.57341839 20.6963197,2.37882841 C21.0474041,0.550979652 22.7272778,0 24.2293852,0 C24.9982171,0 26.0025854,0.201150865 26.6092064,0.7739932 C27.3780366,1.48020749 27.3047093,2.42255545 27.3047093,3.44798827 L27.3047093,5.87054372 C27.3047093,6.5986232 27.6113525,6.91783923 27.9002196,7.31139671 C28.000213,7.45132623 28.0224337,7.61968098 27.8935492,7.72462937 C27.5713515,7.98918744 26.9980611,8.48113242 26.6825295,8.75662141 L26.6803089,8.75224304" id="path28" fill="#FFFFFF"></path>
                            <path d="M4.65398845,4.96317856 C4.65398845,5.56881701 4.66953725,6.07388043 4.35853233,6.61174081 C4.10750435,7.04902617 3.70986092,7.31795594 3.265566,7.31795594 C2.65910344,7.31795594 2.30588976,6.86317876 2.30588976,6.19194726 C2.30588976,4.86697608 3.51214965,4.62646988 4.65398845,4.62646988 L4.65398845,4.96317856 M6.24678477,8.75224721 C6.14237563,8.84407715 5.99131415,8.85063637 5.87357625,8.78941752 C5.34930966,8.36087891 5.25600668,8.16191473 4.96721503,7.75305378 C4.10083998,8.62324945 3.48771473,8.88343248 2.36364741,8.88343248 C1.03520529,8.88343248 0,8.07664317 0,6.4608787 C0,5.19931222 0.695321205,4.3400483 1.6838767,3.92025559 C2.54136555,3.54856245 3.73874017,3.48297107 4.65398845,3.38020937 L4.65398845,3.1790585 C4.65398845,2.80955205 4.6828677,2.37226752 4.46294156,2.0530515 C4.26967199,1.76662908 3.90090866,1.64856225 3.57657253,1.64856225 C2.9745543,1.64856225 2.43695641,1.95247481 2.30588976,2.5821643 C2.2792314,2.72209631 2.17482226,2.85984081 2.0326486,2.86640003 L0.499831678,2.70460366 C0.370985923,2.67618176 0.228811413,2.57341839 0.26435504,2.37882841 C0.617569573,0.550979652 2.2947819,0 3.79649952,0 C4.56512811,0 5.5692341,0.201150865 6.17569666,0.7739932 C6.94432771,1.48020749 6.87101787,2.42255545 6.87101787,3.44798827 L6.87101787,5.87054372 C6.87101787,6.5986232 7.17758261,6.91783923 7.46637426,7.31139671 C7.56856166,7.45132623 7.59077654,7.61968098 7.46193078,7.72462937 C7.13981724,7.98918744 6.56667741,8.48113242 6.25122655,8.75662141 L6.24678477,8.75224304" id="path30" fill="#FFFFFF"></path>
                        </g>
                    </g>
                </g>
            </g>
            <g id="Group" transform="translate(194.000000, 691.000000)" fill="#2E2E2E">
                <path d="M469.802562,52.1728478 C412.888511,93.7937463 330.395067,116 259.36975,116 C159.780796,116 70.125182,79.454848 2.29724421,18.6731372 C-3.03177887,13.8934776 1.74300694,7.37966426 8.13786716,11.1018364 C81.3374329,53.3571951 171.845746,78.778085 265.338285,78.778085 C328.391354,78.778085 397.754043,65.8349831 461.5319,38.9759941 C471.166795,34.9154001 479.224286,45.2360395 469.802562,52.1728478" id="path8"></path>
                <path d="M493.835704,25.4148721 C486.62023,16.2140378 445.959073,21.0676953 427.70824,23.2201864 C422.148079,23.895478 421.29923,19.0840312 426.307571,15.6231355 C458.69221,-7.04130438 511.831876,-0.49942584 518.028673,7.09759285 C524.225438,14.7368384 516.415808,67.7049798 485.983577,92.9861486 C481.314763,96.8690714 476.858161,94.8010179 478.937931,89.6519012 C485.771365,72.6852213 501.093595,34.6579171 493.835704,25.4148721" id="path10"></path>
            </g>
        </g>
    </g>
</svg>