<?xml version="1.0" encoding="UTF-8"?>
<svg width="828px" height="301px" viewBox="0 0 828 301" version="1.1" xmlns="http://www.w3.org/2000/svg" xmlns:xlink="http://www.w3.org/1999/xlink">
    <!-- Generator: Sketch 46.2 (44496) - http://www.bohemiancoding.com/sketch -->
    <title>Cloud 4</title>
    <desc>Created with Sketch.</desc>
    <defs></defs>
    <g id="Assets" stroke="none" stroke-width="1" fill="none" fill-rule="evenodd">
        <g id="Cloud-4" fill="#FDFFFF">
            <path d="M89,299.998601 C88.8334431,299.999533 88.6667761,300 88.5,300 C40.1750844,300 1,260.824916 1,212.5 C1,164.175084 40.1750844,125 88.5,125 C91.6126738,125 94.6873867,125.162531 97.7161147,125.479568 C116.329447,77.7880291 162.718915,44 217,44 C261.581249,44 300.83929,66.7913618 323.758065,101.358027 C330.759325,99.813983 338.034605,99 345.5,99 C355.614223,99 365.379484,100.494083 374.587116,103.273582 C394.290048,43.8504442 450.157632,1 516,1 C576.513476,1 628.60143,37.1950053 651.932181,89.1851101 C658.897389,87.7525224 666.110814,87 673.5,87 C730.395936,87 776.871293,131.615798 779.848473,187.769794 C806.603818,192.224734 827,215.480475 827,243.5 C827,274.537252 801.973861,299.729336 771,299.997834 L89,300 Z" id="Combined-Shape"></path>
        </g>
    </g>
</svg>