<?xml version="1.0" encoding="UTF-8"?>
<svg width="245px" height="105px" viewBox="0 0 245 105" version="1.1" xmlns="http://www.w3.org/2000/svg" xmlns:xlink="http://www.w3.org/1999/xlink">
    <!-- Generator: Sketch 47 (45396) - http://www.bohemiancoding.com/sketch -->
    <title>Drone</title>
    <desc>Created with Sketch.</desc>
    <defs></defs>
    <g id="Assets" stroke="none" stroke-width="1" fill="none" fill-rule="evenodd">
        <g id="Drone">
            <g id="noun_78265_cc" fill-rule="nonzero">
                <path d="M244.692611,5.00886083 C244.026208,4.84361447 223.939294,3.99571104 219.090262,3.74106912 C215.695939,3.56498694 205.938278,3.32930771 200.384916,3.20198675 C200.000245,1.45741867 198.420923,0.167955312 196.462347,0.167955312 C194.536279,0.167955312 193.00301,1.41136641 192.867562,2.96901648 C187.696164,2.68999394 176.559643,2.10756827 172.88088,2.0181727 C168.026429,1.90439652 147.934098,1.22986631 147.256859,1.34093354 C146.57962,1.45200076 146.690687,3.14509866 148.272718,3.59749442 C149.854748,4.04989018 179.886242,7.43608598 186.203528,7.5471532 C188.403201,7.58778755 190.313016,7.59862337 191.889628,7.59862337 L191.889628,9.76037077 C191.889628,10.1748411 192.2743,10.5324234 192.818801,10.6922519 L192.818801,12.0196406 L190.854807,12.0196406 C189.242978,12.0196406 187.937261,12.8377455 187.937261,13.8454774 L187.937261,19.1631593 C184.97908,18.8922636 181.674153,18.5644799 177.88974,18.117502 C154.075303,15.2947692 133.533284,9.42716911 130.033313,9.53823633 C128.272491,9.59512442 116.217634,9.59512442 114.456812,9.53823633 C110.95684,9.42446015 90.4148217,15.2947692 66.6003838,18.117502 C63.0462327,18.5373903 59.9228057,18.8516293 57.1027819,19.114398 L57.1027819,13.6775221 C57.1027819,12.6697902 55.7970648,11.8516853 54.1852356,11.8516853 L52.221242,11.8516853 L52.221242,10.5242965 C52.7657423,10.3644681 53.1504141,10.0095948 53.1504141,9.59241546 L53.1504141,7.43066806 C54.7270269,7.43066806 56.6341324,7.41983224 58.8365141,7.37919789 C65.153801,7.26813066 95.1852943,3.88193486 96.767325,3.42953911 C98.3493557,2.97714335 98.4604229,1.28404545 97.7831837,1.17297822 C97.1059446,1.061911 77.0136132,1.73644121 72.1591629,1.85021738 C68.4803997,1.936904 57.343879,2.52203863 52.1724808,2.80106117 C52.0370329,1.2434111 50.5037635,0 48.5776953,0 C46.6191197,0 45.0397979,1.29217232 44.9666561,2.89587465 C39.101765,3.1613524 29.3441032,3.39703163 25.9497805,3.57311381 C21.1007481,3.82775573 1.01383464,4.67565916 0.347431305,4.84090551 C-0.318972028,5.00615187 -0.0805838441,6.68299603 1.53395431,7.01348874 C3.14578351,7.34398145 33.3452321,8.44381785 39.6543921,8.08081766 C41.290602,7.98600417 42.7669833,7.88848173 44.0699915,7.79366825 L44.0699915,9.59512442 C44.0699915,9.99605 44.4329917,10.3346696 44.9422755,10.5026249 L44.9422755,11.8543943 L42.9782819,11.8543943 C41.3691617,11.8543943 40.0634446,12.6724992 40.0634446,13.680231 L40.0634446,21.0485931 C37.3057267,21.8152278 36.2383978,23.053221 36.2383978,25.5698417 C36.2383978,31.8898376 208.257144,31.8871286 208.257144,25.5671328 C208.257144,23.2157584 207.344226,21.9750563 204.982016,21.1975857 L204.982016,13.8454774 C204.982016,12.8377455 203.676299,12.0196406 202.067179,12.0196406 L200.103185,12.0196406 L200.103185,10.6651623 C200.612469,10.497207 200.975469,10.1585874 200.975469,9.75766182 L200.975469,7.95620565 C202.275768,8.05101913 203.75215,8.14854157 205.391068,8.24335505 C211.700228,8.6090642 241.902386,7.5092278 243.511506,7.17602614 C245.120626,6.84824238 245.359015,5.17139822 244.692611,5.00886083 Z" id="Shape" fill="#4D4D4D"></path>
                <path d="M36.5983016,26.486977 C36.5983016,32.8069729 44.1404243,29.1967397 48.7673223,29.1967397 C53.3942202,29.1967397 55.6534901,31.6808529 63.1031208,34.2760334 C70.5527516,36.8712138 76.1955083,36.421527 78.3410019,36.0829074 C80.4864956,35.7442879 81.3885781,35.1808249 83.5340718,37.0987662 C85.6795654,39.0167075 82.518213,47.9345927 82.518213,47.9345927 C78.6823304,58.6593521 78.3410019,92.8572207 78.3410019,96.9206556 C78.3410019,100.984091 78.5658453,104.259219 80.5975628,104.259219 C82.6292803,104.259219 83.8726914,100.984091 84.8885501,97.148208 C85.9044088,93.3123254 87.5975067,75.0613544 87.9361263,73.4793238 C88.2747459,71.8972931 87.708574,65.9952067 87.9361263,63.0586977 C88.1636787,60.1221887 88.1609697,53.352506 89.7402914,50.1911536 C91.3196132,47.0298012 95.4968243,45.9028753 95.7243767,42.2484927 C95.951929,38.5941102 100.126431,39.8050139 101.48091,39.91879 C102.244835,39.981096 103.344672,41.8394403 104.02462,43.1912097 C105.836912,48.3951154 110.204219,47.9345927 115.635677,47.9345927 L128.329848,47.9345927 C133.295366,47.9345927 137.783637,48.9937948 139.874952,44.4942178 C140.083542,44.044531 140.229825,43.7546726 140.343601,43.4431426 C141.010005,42.0859554 142.204655,39.983805 143.014633,39.9160811 C144.369111,39.8023049 148.543613,38.5941102 148.771166,42.2457838 C148.998718,45.8974573 153.175929,47.0270923 154.755251,50.1884447 C156.334573,53.3497971 156.331864,60.1194797 156.559416,63.0559887 C156.786968,65.9924977 156.220796,71.8972931 156.559416,73.4793238 C156.898035,75.0613544 158.591133,93.3096164 159.606992,97.145499 C160.622851,100.981382 161.866262,104.25651 163.897979,104.25651 C165.929697,104.25651 166.15454,100.981382 166.15454,96.9179467 C166.15454,92.8545117 165.813212,58.6566431 161.977329,47.9318838 C161.977329,47.9318838 158.815977,39.0139985 160.96147,37.0960572 C163.106964,35.1781159 164.009047,35.7415789 166.15454,36.0801985 C168.300034,36.4188181 173.942791,36.8712138 181.392421,34.2733244 C188.842052,31.675435 191.101322,29.1940307 195.72822,29.1940307 C200.355118,29.1940307 208.617048,32.8042639 208.617048,26.4842681 C208.617048,24.1328937 36.5983016,23.9703563 36.5983016,26.486977 Z" id="Shape" fill="#48B7F3"></path>
            </g>
            <path d="M140.060192,33.4311679 C135.32826,37.7146223 128.469613,40 122.564447,40 C114.28445,40 106.830328,36.2389209 101.190997,29.9835133 C100.747933,29.49161 101.144917,28.8212347 101.676596,29.2043056 C107.762534,33.5530561 115.28755,36.1692712 123.060681,36.1692712 C128.303021,36.1692712 134.069954,34.8372195 139.372555,32.0730011 C140.173617,31.6551012 140.84353,32.7172596 140.060192,33.4311679 Z M142.197965,30.6266088 C141.59635,29.6757092 138.206088,30.1773312 136.684363,30.3997896 C136.220766,30.4695805 136.14999,29.9723209 136.567578,29.6146398 C139.267757,27.2722862 143.698456,27.9483847 144.215135,28.7335311 C144.731812,29.5230417 144.080657,34.9972611 141.543267,37.6100517 C141.153989,38.011349 140.782404,37.7976172 140.955812,37.2654596 C141.525573,35.5119655 142.803116,31.5818709 142.197965,30.6266088 Z" id="Combined-Shape" fill="#FFFFFF" transform="translate(122.689751, 34.000000) scale(-1, -1) rotate(-180.000000) translate(-122.689751, -34.000000) "></path>
        </g>
    </g>
</svg>