<?xml version="1.0" encoding="UTF-8"?>
<svg width="452px" height="329px" viewBox="0 0 452 329" version="1.1" xmlns="http://www.w3.org/2000/svg" xmlns:xlink="http://www.w3.org/1999/xlink">
    <!-- Generator: Sketch 47 (45396) - http://www.bohemiancoding.com/sketch -->
    <title>House</title>
    <desc>Created with Sketch.</desc>
    <defs>
        <polygon id="path-1" points="0 329 452 329 452 0 0 0"></polygon>
    </defs>
    <g id="Assets" stroke="none" stroke-width="1" fill="none" fill-rule="evenodd">
        <g id="House">
            <g id="Page-1">
                <path d="M19.9385606,288.075699 C8.60645846,286.041811 0,276.309461 0,264.550274 C0,251.319426 10.8813634,240.593044 24.3045397,240.593044 C24.3540326,240.593044 24.3982226,240.605382 24.4477155,240.605382 C25.1795031,232.297107 32.1739077,225.753063 40.794507,225.753063 C43.002243,225.753063 45.1021553,226.197204 47.0253072,226.974453 C47.0253072,226.888092 47.0005608,226.808781 47.0005608,226.72242 C47.0005608,214.725299 56.8673201,205 69.0372659,205 C77.9937098,205 85.6668739,210.287404 89.1119319,217.850155 C92.2741735,216.450756 95.7563512,215.631208 99.447106,215.631208 C113.43238,215.631208 124.769785,226.807018 124.769785,240.593044 C124.769785,243.830698 124.094561,246.904443 122.956224,249.743779 C135.37717,251.342338 145,261.700363 145,274.377796 C145,286.796147 135.773113,297.0167 123.725132,298.936028 C123.000414,301.479269 121.869149,303.851551 120.426785,306 L26.1269383,306 C22.0543812,302.727097 19.3976741,297.806286 19.3976741,292.221024 C19.3976741,290.788137 19.6150892,289.41165 19.9385606,288.075699 Z" id="Fill-1" fill="#77B043"></path>
                <path d="M26.5109833,276.904354 C25.574327,278.977173 25.0260404,281.262589 25.0260404,283.684421 C25.0260404,292.842029 32.4753575,300.265201 41.6626727,300.265201 C42.2232606,300.265201 42.753974,300.155359 43.3005032,300.100438 C43.5922198,302.199832 44.2652768,304.164581 45.1615145,306 L98.78289,306 C100.824906,303.650805 102.190351,300.711654 102.190351,297.389829 C102.190351,296.729007 101.900391,296.163854 101.807253,295.529607 C106.028357,293.23179 109,288.988711 109,283.928907 C109,280.004724 107.223341,276.551798 104.483665,274.09099 C107.223341,271.630181 109,268.177255 109,264.254844 C109,256.821042 102.837048,250.793922 95.2330857,250.793922 C94.321032,250.793922 93.5249621,251.135848 92.6638709,251.300611 C92.8852944,250.12247 93.0311526,248.915983 93.0311526,247.674064 C93.0311526,236.808595 84.1935458,228 73.2910776,228 C62.3903666,228 53.5510025,236.808595 53.5510025,247.674064 C53.5510025,247.798078 53.5861491,247.913235 53.5879064,248.039022 C47.7746625,248.832716 43.3057752,253.035047 42.1828421,258.615713 C39.9369758,256.390533 36.8300184,254.999796 33.3803818,254.999796 C26.5426152,254.999796 21,260.419243 21,267.103641 C21,271.247507 23.2634396,274.723465 26.5109833,276.904354" id="Fill-3" fill="#8AC440"></path>
                <path d="M432.059915,301.077149 C432.38515,302.413123 432.602562,303.787872 432.602562,305.222546 C432.602562,310.806143 429.945888,315.728802 425.871613,319 L331.572916,319 C330.132337,316.851514 329.001085,314.480953 328.276377,311.937667 C316.226775,310.016543 307,299.797574 307,287.379007 C307,274.69959 316.62448,264.343146 329.043507,262.74456 C327.905184,259.905174 327.231736,256.831376 327.231736,253.591903 C327.231736,239.807399 338.567235,228.631393 352.554106,228.631393 C356.243049,228.631393 359.725184,229.450955 362.887387,230.85038 C366.33417,223.287497 374.007241,218 382.963576,218 C395.133373,218 404.998245,227.725469 404.998245,239.722799 C404.998245,239.809162 404.975266,239.888474 404.975266,239.974836 C406.898395,239.197574 408.996514,238.753425 411.20599,238.753425 C419.824717,238.753425 426.819036,245.295821 427.550815,253.606003 C427.600307,253.606003 427.646264,253.591903 427.693989,253.591903 C441.118769,253.591903 452,264.320234 452,277.551313 C452,289.310706 443.393646,299.043225 432.059915,301.077149" id="Fill-5" fill="#77B043"></path>
                <path d="M424.487369,289.905465 C425.424007,291.978331 425.972283,294.262027 425.972283,296.685686 C425.972283,305.84173 418.523114,313.266842 409.335983,313.266842 C408.775406,313.266842 408.24646,313.156998 407.698185,313.102076 C407.404717,315.199746 406.733431,317.166311 405.837211,319 L352.216906,319 C350.174931,316.652524 348.811271,313.713306 348.811271,310.389633 C348.811271,309.730568 349.101224,309.165402 349.192603,308.531141 C344.971584,306.2315 342,301.990097 342,296.928406 C342,293.005906 343.776624,289.551129 346.516245,287.092037 C343.776624,284.631172 342,281.178167 342,277.253895 C342,269.821696 348.162829,263.79444 355.768397,263.79444 C356.676918,263.79444 357.472972,264.136374 358.334046,264.30114 C358.114384,263.122973 357.968528,261.916458 357.968528,260.674511 C357.968528,249.808795 366.805959,241 377.708209,241 C388.61046,241 397.44789,249.808795 397.44789,260.674511 C397.44789,260.798528 397.414502,260.913687 397.412744,261.037705 C403.224115,261.833189 407.692913,266.035615 408.815824,271.616408 C411.059888,269.389406 414.16854,268.000409 417.619865,268.000409 C424.455738,268.000409 430,273.419979 430,280.104529 C430,284.246718 427.734848,287.724526 424.487369,289.905465" id="Fill-7" fill="#8AC440"></path>
                <mask id="mask-2" fill="white">
                    <use xlink:href="#path-1"></use>
                </mask>
                <g id="Clip-10"></g>
                <polygon id="Fill-9" fill="#92C9BE" mask="url(#mask-2)" points="75 308 315 308 315 153 75 153"></polygon>
                <polygon id="Fill-11" fill="#996440" mask="url(#mask-2)" points="301 152 67 152 118.203578 80 301 80"></polygon>
                <polygon id="Fill-12" fill="#8B4F2C" mask="url(#mask-2)" points="67 158 301 158 301 153 67 153"></polygon>
                <polygon id="Fill-13" fill="#8B4F2C" mask="url(#mask-2)" points="207 101 308 0 409 101"></polygon>
                <polygon id="Fill-14" fill="#BADED3" mask="url(#mask-2)" points="221 101 307.000882 15 393 101"></polygon>
                <polygon id="Fill-15" fill="#BADED3" mask="url(#mask-2)" points="223 309 395 309 395 101 223 101"></polygon>
                <polygon id="Fill-16" fill="#92C9BE" mask="url(#mask-2)" points="220 213 392 213 392 207 220 207"></polygon>
                <path d="M173.5,179 C163.283296,179 155,187.47609 155,197.930527 L155,200.790317 L155,248 L192,248 L192,200.790317 L192,197.930527 C192,187.47609 183.716704,179 173.5,179" id="Fill-17" fill="#43897C" mask="url(#mask-2)"></path>
                <path d="M189.439185,184.560788 C173.156512,177.341737 161.980068,186.43493 162.11778,198.770549 L162,198.770549 L162,246 L194,246 L194,199.432734 L194,198.770549 L194,196.611859 C194,192.768725 191.48675,187.529205 189.439185,184.560788" id="Fill-18" fill="#67A99E" mask="url(#mask-2)"></path>
                <path d="M175.38287,244.306533 L190.360367,244.306533 L190.360367,223.874487 L175.38287,223.874487 L175.38287,244.306533 Z M157.639633,244.306533 L172.620585,244.306533 L172.620585,223.874487 L157.639633,223.874487 L157.639633,244.306533 Z M172.620585,178.812942 L172.620585,198.296214 L157.639633,198.296214 L157.639633,197.041722 C157.639633,187.330834 164.281902,179.436674 172.620585,178.812942 L172.620585,178.812942 Z M175.38287,221.435783 L190.360367,221.435783 L190.360367,200.73316 L175.38287,200.73316 L175.38287,221.435783 Z M157.639633,221.435783 L172.620585,221.435783 L172.620585,200.73316 L157.639633,200.73316 L157.639633,221.435783 Z M190.35864,197.041722 L190.35864,198.296214 L175.38287,198.296214 L175.38287,178.812942 C183.719825,179.438431 190.35864,187.332591 190.35864,197.041722 L190.35864,197.041722 Z M174.344638,176 L173.653635,176 C163.36805,176 155,185.438555 155,197.041722 L155,247 L193,247 L193,197.041722 C193,185.438555 184.63195,176 174.344638,176 L174.344638,176 Z" id="Fill-19" fill="#E8E5DF" mask="url(#mask-2)"></path>
                <path d="M116.5,179 C106.283296,179 98,187.47609 98,197.930527 L98,200.790317 L98,248 L135,248 L135,200.790317 L135,197.930527 C135,187.47609 126.716704,179 116.5,179" id="Fill-20" fill="#43897C" mask="url(#mask-2)"></path>
                <path d="M131.440997,184.560788 C115.156512,177.341737 103.98188,186.43493 104.119592,198.770549 L104,198.770549 L104,246 L136,246 L136,199.432734 L136,198.770549 L136,196.611859 C136,192.768725 133.48675,187.529205 131.440997,184.560788" id="Fill-21" fill="#67A99E" mask="url(#mask-2)"></path>
                <path d="M117.382069,244.306533 L132.360247,244.306533 L132.360247,223.874487 L117.382069,223.874487 L117.382069,244.306533 Z M99.6397527,244.306533 L114.621386,244.306533 L114.621386,223.874487 L99.6397527,223.874487 L99.6397527,244.306533 Z M114.621386,178.812942 L114.621386,198.296214 L99.6397527,198.296214 L99.6397527,197.041722 C99.6397527,187.330834 106.280596,179.436674 114.621386,178.812942 L114.621386,178.812942 Z M117.382069,221.435783 L132.360247,221.435783 L132.360247,200.73316 L117.382069,200.73316 L117.382069,221.435783 Z M99.6397527,221.435783 L114.621386,221.435783 L114.621386,200.73316 L99.6397527,200.73316 L99.6397527,221.435783 Z M132.360247,197.041722 L132.360247,198.296214 L117.382069,198.296214 L117.382069,178.812942 C125.721131,179.438431 132.360247,187.332591 132.360247,197.041722 L132.360247,197.041722 Z M116.345517,176 L115.652755,176 C105.366703,176 97,185.438555 97,197.041722 L97,247 L135,247 L135,197.041722 C135,185.438555 126.631569,176 116.345517,176 L116.345517,176 Z" id="Fill-22" fill="#E8E5DF" mask="url(#mask-2)"></path>
                <polygon id="Fill-23" fill="#E8E5DF" mask="url(#mask-2)" points="370 298 380 298 380 223 370 223"></polygon>
                <path d="M365,217 L365,217.752014 C365,222.86034 369.024651,227 373.987418,227 L376.012582,227 C380.975349,227 385,222.86034 385,217.752014 L385,217 L365,217 Z" id="Fill-24" fill="#E8E5DF" mask="url(#mask-2)"></path>
                <path d="M365,304 L365,303.247986 C365,298.14145 369.024651,294 373.987418,294 L376.012582,294 C380.975349,294 385,298.14145 385,303.247986 L385,304 L365,304 Z" id="Fill-25" fill="#E8E5DF" mask="url(#mask-2)"></path>
                <polygon id="Fill-26" fill="#E8E5DF" mask="url(#mask-2)" points="236 298 246 298 246 223 236 223"></polygon>
                <path d="M231,217 L231,217.752014 C231,222.86034 235.022939,227 239.987418,227 L242.012582,227 C246.975349,227 251,222.86034 251,217.752014 L251,217 L231,217 Z" id="Fill-27" fill="#E8E5DF" mask="url(#mask-2)"></path>
                <path d="M231,304 L231,303.247986 C231,298.14145 235.022939,294 239.987418,294 L242.012582,294 C246.975349,294 251,298.14145 251,303.247986 L251,304 L231,304 Z" id="Fill-28" fill="#E8E5DF" mask="url(#mask-2)"></path>
                <path d="M60,268.004 L222,268" id="Fill-29" fill="#E8E5DF" mask="url(#mask-2)"></path>
                <polygon id="Fill-30" fill="#E8E5DF" mask="url(#mask-2)" points="222 271.996008 60 272 60 266.003992 222 266"></polygon>
                <path d="M63,306 L222,306" id="Fill-31" fill="#E8E5DF" mask="url(#mask-2)"></path>
                <polygon id="Fill-32" fill="#E8E5DF" mask="url(#mask-2)" points="63 310 222 310 222 304 63 304"></polygon>
                <polygon id="Fill-33" fill="#E8E5DF" mask="url(#mask-2)" points="75 309 82 309 82 266 75 266"></polygon>
                <polygon id="Fill-34" fill="#E8E5DF" mask="url(#mask-2)" points="88 309 95 309 95 266 88 266"></polygon>
                <polygon id="Fill-35" fill="#E8E5DF" mask="url(#mask-2)" points="103 309 110 309 110 266 103 266"></polygon>
                <polygon id="Fill-36" fill="#E8E5DF" mask="url(#mask-2)" points="116 309 123 309 123 266 116 266"></polygon>
                <polygon id="Fill-37" fill="#E8E5DF" mask="url(#mask-2)" points="131 309 138 309 138 266 131 266"></polygon>
                <polygon id="Fill-38" fill="#E8E5DF" mask="url(#mask-2)" points="145 309 152 309 152 266 145 266"></polygon>
                <polygon id="Fill-39" fill="#E8E5DF" mask="url(#mask-2)" points="159 309 166 309 166 266 159 266"></polygon>
                <polygon id="Fill-40" fill="#E8E5DF" mask="url(#mask-2)" points="173 309 180 309 180 266 173 266"></polygon>
                <polygon id="Fill-41" fill="#E8E5DF" mask="url(#mask-2)" points="186 309 193 309 193 266 186 266"></polygon>
                <polygon id="Fill-42" fill="#E8E5DF" mask="url(#mask-2)" points="201 309 208 309 208 266 201 266"></polygon>
                <polygon id="Fill-43" fill="#E8E5DF" mask="url(#mask-2)" points="215 309 222 309 222 266 215 266"></polygon>
                <polygon id="Fill-44" fill="#E8E5DF" mask="url(#mask-2)" points="60 309 67 309 67 266 60 266"></polygon>
                <polygon id="Fill-45" fill="#43897C" mask="url(#mask-2)" points="269 169 347 169 347 118 269 118"></polygon>
                <polygon id="Fill-46" fill="#67A99E" mask="url(#mask-2)" points="277 169 346 169 346 124 277 124"></polygon>
                <path d="M322.026386,165.914783 L343.913752,165.914783 L343.913752,144.039074 L322.026386,144.039074 L322.026386,165.914783 Z M297.059862,165.914783 L318.94191,165.914783 L318.94191,144.039074 L297.059862,144.039074 L297.059862,165.914783 Z M272.086248,165.914783 L293.973614,165.914783 L293.973614,144.039074 L272.086248,144.039074 L272.086248,165.914783 Z M272.086248,140.953857 L293.973614,140.953857 L293.973614,119.08345 L272.086248,119.08345 L272.086248,140.953857 Z M297.05809,140.955624 L318.940138,140.955624 L318.940138,119.085217 L297.05809,119.085217 L297.05809,140.955624 Z M322.026386,140.955624 L343.913752,140.955624 L343.913752,119.085217 L322.026386,119.085217 L322.026386,140.955624 Z M347,144.039074 L347,140.955624 L347,116 L322.026386,116 L318.940138,116 L297.059862,116 L293.973614,116 L269,116 L269,140.955624 L269,144.039074 L269,169 L293.973614,169 L297.059862,169 L318.940138,169 L322.026386,169 L347,169 L347,144.039074 Z" id="Fill-47" fill="#E8E5DF" mask="url(#mask-2)"></path>
                <path d="M325.930202,82 C325.938927,81.7560165 326,81.5265991 326,81.2807948 L326,78.3566339 C326,67.665057 317.716704,59 307.5,59 C297.283296,59 289,67.665057 289,78.3566339 L289,81.2807948 C289,81.5265991 289.061073,81.7560165 289.069798,82 L325.930202,82 Z" id="Fill-48" fill="#43897C" mask="url(#mask-2)"></path>
                <path d="M327,80.3090279 L327,77.499658 C327,73.6721975 324.569896,68.4540465 322.591824,65.4977357 C306.259145,58.038736 294.204991,68.4872831 296.803292,81 L294,81 L326.929918,81 C326.938678,80.7655943 327,80.5451829 327,80.3090279" id="Fill-49" fill="#67A99E" mask="url(#mask-2)"></path>
                <path d="M290.64136,79.2669603 C290.64136,69.4513035 297.281902,61.4701996 305.622312,60.8415145 L305.622312,80.5349861 L290.64136,80.5349861 L290.64136,79.2669603 Z M308.38287,60.8415145 C316.721553,61.4737515 323.35864,69.4530795 323.35864,79.2669603 L323.35864,80.5349861 L308.38287,80.5349861 L308.38287,60.8415145 Z M290.64136,83 L305.622312,83 L308.38287,83 L323.35864,83 L326,83 L326,79.2669603 C326,67.5386091 317.63195,58 307.346365,58 L306.655362,58 C296.36805,58 288,67.5386091 288,79.2669603 L288,83 L290.64136,83 Z" id="Fill-50" fill="#E8E5DF" mask="url(#mask-2)"></path>
                <polygon id="Fill-51" fill="#E8E5DF" mask="url(#mask-2)" points="266 175 351 175 351 168 266 168"></polygon>
                <polygon id="Fill-52" fill="#AFADAD" mask="url(#mask-2)" points="269 178 347 178 347 175 269 175"></polygon>
                <path d="M290,284.5 C290,285.328514 289.3295,286 288.5,286 C287.672,286 287,285.328514 287,284.5 C287,283.671486 287.672,283 288.5,283 C289.3295,283 290,283.671486 290,284.5" id="Fill-53" fill="#67A99E" mask="url(#mask-2)"></path>
                <polygon id="Fill-54" fill="#92C9BE" mask="url(#mask-2)" points="223 320 395 320 395 303 223 303"></polygon>
                <polygon id="Fill-55" fill="#67A99E" mask="url(#mask-2)" points="221 320 395 320 395 315 221 315"></polygon>
                <polygon id="Fill-56" fill="#92C9BE" mask="url(#mask-2)" points="270 319 347 319 347 215 270 215"></polygon>
                <polygon id="Fill-57" fill="#996440" mask="url(#mask-2)" points="393.471811 188 283.101446 188 269.703958 188 220.528189 188 203 213 269.703958 213 283.101446 213 411 213"></polygon>
                <polygon id="Fill-58" fill="#8B4F2C" mask="url(#mask-2)" points="203 218 411 218 411 213 203 213"></polygon>
                <polygon id="Fill-59" fill="#43897C" mask="url(#mask-2)" points="285 315 330 315 330 223 285 223"></polygon>
                <polygon id="Fill-60" fill="#67A99E" mask="url(#mask-2)" points="292 279 325 279 325 230 292 230"></polygon>
                <polygon id="Fill-61" fill="#67A99E" mask="url(#mask-2)" points="292 308 325 308 325 284 292 284"></polygon>
                <path d="M292,281.5 C292,282.880779 290.881659,284 289.501017,284 C288.118341,284 287,282.880779 287,281.5 C287,280.119221 288.118341,279 289.501017,279 C290.881659,279 292,280.119221 292,281.5" id="Fill-62" fill="#67A99E" mask="url(#mask-2)"></path>
                <polygon id="Fill-63" fill="#67A99E" mask="url(#mask-2)" points="75 166 223 166 223 157 75 157"></polygon>
                <polygon id="Fill-64" fill="#E8E5DF" mask="url(#mask-2)" points="276 320 340 320 340 313 276 313"></polygon>
                <polygon id="Fill-65" fill="#E8E5DF" mask="url(#mask-2)" points="273 329 342 329 342 322 273 322"></polygon>
                <polygon id="Fill-66" fill="#C8C7C4" mask="url(#mask-2)" points="273 322 342 322 342 320 273 320"></polygon>
                <polygon id="Fill-67" fill="#C8C7C4" mask="url(#mask-2)" points="276 314 340 314 340 312 276 312"></polygon>
            </g>
        </g>
    </g>
</svg>