<?xml version="1.0" encoding="UTF-8"?>
<svg width="800px" height="464px" viewBox="0 0 800 464" version="1.1" xmlns="http://www.w3.org/2000/svg" xmlns:xlink="http://www.w3.org/1999/xlink">
    <!-- Generator: Sketch 46.2 (44496) - http://www.bohemiancoding.com/sketch -->
    <title>Laptop</title>
    <desc>Created with Sketch.</desc>
    <defs></defs>
    <g id="Assets" stroke="none" stroke-width="1" fill="none" fill-rule="evenodd">
        <g id="Laptop">
            <path d="M800,429.96139 C800,448.75893 785.36104,464 767.301124,464 L32.7021243,464 C14.6422088,464 0,448.75893 0,429.96139 L800,429.96139 Z" id="Fill-6" fill="#E9E9E9"></path>
            <path d="M456.886898,429.96139 C456.886898,436.393262 451.804309,441.606178 445.533077,441.606178 L357.154493,441.606178 C350.886508,441.606178 345.800672,436.393262 345.800672,429.96139 L456.886898,429.96139 Z" id="Fill-12" fill="#B3B2B2"></path>
            <path d="M410.608571,429.96139 L84.2105263,429.96139 L84.2105263,22.1915556 C84.2105263,9.93428995 94.2010381,0 106.527672,0 L410.608571,0 L697.951611,0 C710.281508,0 720.268757,9.93428995 720.268757,22.1915556 L720.268757,429.96139 L410.608571,429.96139 Z M101.139833,408.221769 L703.33945,408.221769 L703.33945,21.7396208 L101.139833,21.7396208 L101.139833,408.221769 Z" id="Combined-Shape" fill="#3D3D3D"></path>
            <path d="M415.677492,12.0895945 C415.677492,14.8122927 413.470911,17.019305 410.748745,17.019305 C408.02658,17.019305 405.823068,14.8122927 405.823068,12.0895945 C405.823068,9.36996596 408.02658,7.16602317 410.748745,7.16602317 C413.470911,7.16602317 415.677492,9.36996596 415.677492,12.0895945 Z" id="Fill-8" fill="#000000"></path>
        </g>
    </g>
</svg>