<?xml version="1.0" encoding="UTF-8"?>
<svg width="1335px" height="182px" viewBox="0 0 1335 182" version="1.1" xmlns="http://www.w3.org/2000/svg" xmlns:xlink="http://www.w3.org/1999/xlink">
    <!-- Generator: Sketch 47 (45396) - http://www.bohemiancoding.com/sketch -->
    <title>Regional Center</title>
    <desc>Created with Sketch.</desc>
    <defs>
        <rect id="path-1" x="0" y="35" width="1335" height="147"></rect>
        <polygon id="path-2" points="0 37.5891144 0 0.223339483 62.8690044 0.223339483 62.8690044 74.9548893 0 74.9548893 0 37.5891144"></polygon>
    </defs>
    <g id="Assets" stroke="none" stroke-width="1" fill="none" fill-rule="evenodd">
        <g id="Regional-Center">
            <g id="Group-2">
                <g id="Rectangle-3">
                    <use fill="#D8D8D8" fill-rule="evenodd" xlink:href="#path-1"></use>
                    <rect stroke="#979797" stroke-width="1" x="0.5" y="35.5" width="1334" height="146"></rect>
                </g>
                <polygon id="Rectangle-3" fill="#B6B6B6" points="123.566482 0.925087697 1211.43352 0.925087697 1335 36 0 36"></polygon>
                <g id="Group" transform="translate(29.000000, 59.000000)" fill="#2A2A2A">
                    <rect id="Rectangle-4-Copy-34" x="1170" y="63" width="43" height="38"></rect>
                    <rect id="Rectangle-4-Copy-33" x="1092" y="63" width="43" height="38"></rect>
                    <rect id="Rectangle-4-Copy-32" x="1014" y="63" width="43" height="38"></rect>
                    <rect id="Rectangle-4-Copy-31" x="936" y="63" width="43" height="38"></rect>
                    <rect id="Rectangle-4-Copy-30" x="858" y="63" width="43" height="38"></rect>
                    <rect id="Rectangle-4-Copy-29" x="468" y="63" width="43" height="38"></rect>
                    <rect id="Rectangle-4-Copy-29" x="780" y="63" width="43" height="38"></rect>
                    <rect id="Rectangle-4-Copy-24" x="390" y="63" width="43" height="38"></rect>
                    <rect id="Rectangle-4-Copy-23" x="312" y="63" width="43" height="38"></rect>
                    <rect id="Rectangle-4-Copy-22" x="234" y="63" width="43" height="38"></rect>
                    <rect id="Rectangle-4-Copy-21" x="156" y="63" width="43" height="38"></rect>
                    <rect id="Rectangle-4-Copy-20" x="78" y="63" width="43" height="38"></rect>
                    <rect id="Rectangle-4-Copy-19" x="0" y="63" width="43" height="38"></rect>
                    <rect id="Rectangle-4-Copy-18" x="1170" y="0" width="43" height="38"></rect>
                    <rect id="Rectangle-4-Copy-34" x="1248" y="63" width="43" height="38"></rect>
                    <rect id="Rectangle-4-Copy-18" x="1248" y="0" width="43" height="38"></rect>
                    <rect id="Rectangle-4-Copy-17" x="1092" y="0" width="43" height="38"></rect>
                    <rect id="Rectangle-4-Copy-16" x="1014" y="0" width="43" height="38"></rect>
                    <rect id="Rectangle-4-Copy-15" x="936" y="0" width="43" height="38"></rect>
                    <rect id="Rectangle-4-Copy-14" x="858" y="0" width="43" height="38"></rect>
                    <rect id="Rectangle-4-Copy-13" x="780" y="0" width="43" height="38"></rect>
                    <rect id="Rectangle-4-Copy-9" x="468" y="0" width="43" height="38"></rect>
                    <rect id="Rectangle-4-Copy-8" x="390" y="0" width="43" height="38"></rect>
                    <rect id="Rectangle-4-Copy-7" x="312" y="0" width="43" height="38"></rect>
                    <rect id="Rectangle-4-Copy-6" x="234" y="0" width="43" height="38"></rect>
                    <rect id="Rectangle-4-Copy-5" x="156" y="0" width="43" height="38"></rect>
                    <rect id="Rectangle-4-Copy" x="78" y="0" width="43" height="38"></rect>
                    <rect id="Rectangle-4" x="0" y="0" width="43" height="38"></rect>
                </g>
                <rect id="Rectangle" fill="#1A1A1A" x="573" y="126" width="15" height="56"></rect>
                <rect id="Rectangle" fill="#1A1A1A" x="573" y="126" width="203" height="15"></rect>
                <rect id="Rectangle" fill="#1A1A1A" x="761" y="126" width="15" height="56"></rect>
            </g>
            <g id="new-ups-logo" transform="translate(643.000000, 47.000000)">
                <g id="Group-34">
                    <mask id="mask-3" fill="white">
                        <use xlink:href="#path-2"></use>
                    </mask>
                    <g id="Clip-32"></g>
                    <path d="M31.4442159,74.2989852 C32.1355507,74.0053506 48.74063,66.8488007 53.9601938,62.5818266 C59.4187137,58.1189114 62.3014493,51.7206642 62.3014493,44.077583 L62.3014493,8.10083026 L61.8621145,7.86420664 C48.5574581,0.726476015 32.1108502,1.18809963 31.4192379,1.21162362 C30.7806344,1.18809963 14.3368018,0.726476015 1.03519824,7.86420664 L0.597251101,8.10083026 L0.597251101,44.077583 C0.597251101,51.7206642 3.48165198,58.1189114 8.93545374,62.5818266 C14.1564053,66.8488007 30.7556564,74.0053506 31.4442159,74.2989852" id="Fill-31" fill="#443128" mask="url(#mask-3)"></path>
                    <path d="M2.49474449,44.2527675 C2.49474449,51.2180812 5.09051101,57.0218635 9.9892467,61.0303506 C14.3900881,64.625369 27.7208326,70.6015683 31.428674,72.2349631 C35.1409559,70.6015683 48.4730881,64.625369 52.8681013,61.0303506 C57.7784934,57.0218635 60.3698194,51.2180812 60.3698194,44.2527675 L60.3698194,7.62869004 C41.8164581,5.91088561 19.8674802,6.96420664 2.49474449,22.8534133 L2.49474449,44.2527675 Z M31.428674,74.9548893 C31.428674,74.9548893 13.8450132,67.3964945 8.41313656,62.9543358 C2.73370044,58.3118081 0,51.7937269 0,44.2527675 L0,7.09843173 C13.8802599,-0.351752768 31.428674,0.234132841 31.428674,0.234132841 C31.428674,0.234132841 48.9845815,-0.351752768 62.8690044,7.09843173 L62.8690044,44.2527675 C62.8690044,51.7937269 60.1325286,58.3118081 54.4530925,62.9543358 C49.0212159,67.3964945 31.428674,74.9548893 31.428674,74.9548893 L31.428674,74.9548893 Z" id="Fill-33" fill="#F3B729" mask="url(#mask-3)"></path>
                </g>
                <path d="M48.2597387,38.5938521 C50.6357049,39.9814169 51.5932282,40.8966935 51.6316156,42.5820928 C51.6773021,44.4551171 50.3759138,45.5830174 48.3954464,45.5746845 C46.671526,45.5617819 44.6126617,44.6096792 43.2312545,43.3895791 L43.2312545,48.3355674 C44.9235458,49.3360548 47.034044,50 49.1672502,50 C54.5055372,50 56.8869101,46.2499194 56.9926107,42.8178336 C57.0926343,39.6862704 56.2205366,37.3154217 51.7086608,34.6806077 C49.6925093,33.5056667 48.1029449,32.7325872 48.1570117,30.775965 C48.2083752,28.8704155 49.8036166,28.1992126 51.3304635,28.2134592 C53.2198283,28.2303939 55.043502,29.2720082 56.1707951,30.4211441 L56.1707951,25.7504108 C55.2203005,25.0251784 53.209826,23.9158255 50.2445315,24.0050683 C46.690179,24.1101706 42.9757888,26.6654187 43.0001189,31.0041794 C43.0087696,33.8591436 43.8092288,35.9972083 48.2597387,38.5938521" id="Fill-35" fill="#F3B729"></path>
                <path d="M30.6284882,28.7243102 C31.0868176,28.5079029 31.8605656,28.3359628 32.6236024,28.3359628 C35.8911021,28.3359628 37.2435404,30.8309807 37.2435404,36.8626286 C37.2435404,42.7460522 35.6960443,45.5881843 32.4556046,45.5881843 C31.6982054,45.5881843 31.0318519,45.4089677 30.6284882,45.2639775 L30.6284882,28.7243102 Z M30.6284882,49.6667759 C31.1908297,49.8230851 32.0062952,49.9710398 33.1622663,49.9710398 C39.4111623,49.9710398 43,44.5883446 43,36.7246453 C43,28.8779244 39.3057409,24 32.5849854,24 C29.5156441,24 27.0368317,24.6573071 25,25.916135 L25,61 L30.6284882,61 L30.6284882,49.6667759 L30.6284882,49.6667759 Z" id="Fill-36" fill="#F3B729"></path>
                <path d="M14.4541523,51 C17.9260892,51 20.8347945,50.2244544 23,48.7950229 L23,25 L17.3387272,25 L17.3387272,45.6755392 C16.721557,46.0858314 15.8074412,46.3467267 14.6551442,46.3467267 C12.0567273,46.3467267 11.6686539,44.0404124 11.6686539,42.486575 L11.6686539,25 L6,25 L6,42.241608 C6,48.0560027 8.84539853,51 14.4541523,51" id="Fill-37" fill="#F3B729"></path>
            </g>
        </g>
    </g>
</svg>