<?xml version="1.0" encoding="UTF-8"?>
<svg width="1003px" height="575px" viewBox="0 0 1003 575" version="1.1" xmlns="http://www.w3.org/2000/svg" xmlns:xlink="http://www.w3.org/1999/xlink">
    <!-- Generator: Sketch 46.2 (44496) - http://www.bohemiancoding.com/sketch -->
    <title>robot</title>
    <desc>Created with Sketch.</desc>
    <defs></defs>
    <g id="Assets" stroke="none" stroke-width="1" fill="none" fill-rule="evenodd">
        <g id="robot">
            <path d="M98.2902787,1 L898.572192,1 C926.13969,1 949.898131,20.4044696 955.40374,47.4165998 L1000.998,271.115388 L1000.998,528.230355 C1000.998,535.410057 995.177706,541.230355 987.998004,541.230355 L13,541.230355 C5.82029825,541.230355 6.46478214e-14,535.410057 0,528.230355 L0,271.115388 L41.2610012,48.4329988 C46.3545029,20.9437696 70.3331422,1 98.2902787,1 Z" id="Rectangle-8" fill="#D57424"></path>
            <path d="M36.0229541,516 L42.0548902,516 C49.234592,516 55.0548902,521.820298 55.0548902,529 L55.0548902,553 C55.0548902,560.179702 49.234592,566 42.0548902,566 L36.0229541,566 C28.8432523,566 23.0229541,560.179702 23.0229541,553 L23.0229541,529 C23.0229541,521.820298 28.8432523,516 36.0229541,516 L36.0229541,516 Z" id="Rectangle-6" fill="#1C1C1C"></path>
            <path d="M414.4002,520 L420.432136,520 C427.611837,520 433.432136,525.820298 433.432136,533 L433.432136,557 C433.432136,564.179702 427.611837,570 420.432136,570 L414.4002,570 C407.220498,570 401.4002,564.179702 401.4002,557 L401.4002,533 C401.4002,525.820298 407.220498,520 414.4002,520 Z" id="Rectangle-6" fill="#1C1C1C"></path>
            <path d="M583.568862,520 L589.600798,520 C596.7805,520 602.600798,525.820298 602.600798,533 L602.600798,557 C602.600798,564.179702 596.7805,570 589.600798,570 L583.568862,570 C576.389161,570 570.568862,564.179702 570.568862,557 L570.568862,533 C570.568862,525.820298 576.389161,520 583.568862,520 Z" id="Rectangle-6" fill="#1C1C1C"></path>
            <path d="M959,520 L965.031936,520 C972.211638,520 978.031936,525.820298 978.031936,533 L978.031936,557 C978.031936,564.179702 972.211638,570 965.031936,570 L959,570 C951.820298,570 946,564.179702 946,557 L946,533 C946,525.820298 951.820298,520 959,520 Z" id="Rectangle-6" fill="#1C1C1C"></path>
            <ellipse id="Oval-2" fill="#353535" cx="502.500998" cy="119" rx="355.354291" ry="90"></ellipse>
            <path d="M59.000998,234 L943.999002,234 C976.031517,234 1001.999,259.967485 1001.999,292 L1001.999,486 C1001.999,518.032515 976.031517,544 943.999002,544 L59.000998,544 C26.9684825,544 1.000998,518.032515 1.000998,486 L1.000998,292 C1.000998,259.967485 26.9684825,234 59.000998,234 Z" id="Rectangle" fill="#F38123"></path>
            <path d="M35.5354291,525 L964.461577,525" id="Line" stroke="#000000" stroke-width="10" stroke-linecap="square"></path>
            <path d="M80.0219561,264 L923.979042,264 C956.011557,264 981.979042,289.967485 981.979042,322 L981.979042,457 C981.979042,489.032515 956.011557,515 923.979042,515 L80.0219561,515 C47.9894406,515 22.0219561,489.032515 22.0219561,457 L22.0219561,322 C22.0219561,289.967485 47.9894406,264 80.0219561,264 Z" id="Rectangle-3" fill="#241C1F"></path>
            <polygon id="Rectangle-2" fill="#D8D8D8" points="0 449 1003 449 1003 544 0 544"></polygon>
            <path d="M35.116809,326.17046 L61.5111931,292.874878 C69.0985639,283.303678 80.6430438,277.723466 92.8568091,277.723466 L320.053173,277.723466 C322.814597,277.723466 325.053173,279.962043 325.053173,282.723466 C325.053173,283.774257 324.72212,284.79834 324.107024,285.650289 L300.973999,317.691118 C293.454197,328.10656 281.389548,334.276534 268.543192,334.276534 L39.035011,334.276534 C36.2735873,334.276534 34.035011,332.037957 34.035011,329.276534 C34.035011,328.148805 34.4162474,327.054194 35.116809,326.17046 Z" id="Path-2" fill="#9CDAFC"></path>
            <path d="M968.347255,328.172231 L941.987172,294.889042 C934.40019,285.309445 922.850439,279.723466 910.630333,279.723466 L683.677589,279.723466 C680.916165,279.723466 678.677589,281.962043 678.677589,284.723466 C678.677589,285.773505 679.008169,286.796893 679.622449,287.648504 L702.724998,319.676832 C710.243847,330.100625 722.313544,336.276534 735.166114,336.276534 L964.42765,336.276534 C967.189073,336.276534 969.42765,334.037957 969.42765,331.276534 C969.42765,330.149579 969.046936,329.055674 968.347255,328.172231 Z" id="Path-2" fill="#9CDAFC"></path>
            <path d="M64.0389222,367 L185.209581,367 C199.0167,367 210.209581,378.192881 210.209581,392 L210.209581,442 L39.0389222,442 L39.0389222,392 C39.0389222,378.192881 50.2318034,367 64.0389222,367 Z" id="Rectangle-4" fill="#38373E"></path>
            <path d="M414.4002,320 L589.600798,320 C596.7805,320 602.600798,325.820298 602.600798,333 L602.600798,400 C602.600798,407.179702 596.7805,413 589.600798,413 L414.4002,413 C407.220498,413 401.4002,407.179702 401.4002,400 L401.4002,333 C401.4002,325.820298 407.220498,320 414.4002,320 Z" id="Rectangle-5" fill="#0F0F0F"></path>
            <path d="M437,331 L566.768206,331 C573.947907,331 579.768206,336.820298 579.768206,344 L579.768206,390 C579.768206,397.179702 573.947907,403 566.768206,403 L437,403 C429.820298,403 424,397.179702 424,390 L424,344 C424,336.820298 429.820298,331 437,331 Z" id="Rectangle-5" fill="#000000"></path>
            <ellipse id="Oval" fill="#BA3C33" cx="808.806387" cy="398" rx="25.0249501" ry="25"></ellipse>
            <ellipse id="Oval" fill="#E7D9D9" cx="874.872255" cy="399" rx="15.0149701" ry="15"></ellipse>
            <ellipse id="Oval" fill="#E7D9D9" cx="930.928144" cy="398" rx="15.0149701" ry="15"></ellipse>
        </g>
    </g>
</svg>