<?xml version="1.0" encoding="UTF-8"?>
<svg width="545px" height="524px" viewBox="0 0 545 524" version="1.1" xmlns="http://www.w3.org/2000/svg" xmlns:xlink="http://www.w3.org/1999/xlink">
    <!-- Generator: Sketch 46.2 (44496) - http://www.bohemiancoding.com/sketch -->
    <title>Group</title>
    <desc>Created with Sketch.</desc>
    <defs>
        <polygon id="path-1" points="2.85076923 16.8 106.82 16.8 106.82 271.152 2.85076923 271.152"></polygon>
        <polygon id="path-2" points="2.85076923 16.8 106.82 16.8 106.82 271.152 2.85076923 271.152"></polygon>
        <polygon id="path-3" points="2.85076923 16.8 106.82 16.8 106.82 271.152 2.85076923 271.152"></polygon>
        <polygon id="path-4" points="3.16461538 18.6285714 118.58 18.6285714 118.58 300.665143 3.16461538 300.665143"></polygon>
        <polygon id="path-5" points="3.16461538 18.6285714 118.58 18.6285714 118.58 300.665143 3.16461538 300.665143"></polygon>
        <polygon id="path-6" points="3.16461538 18.6285714 118.58 18.6285714 118.58 300.665143 3.16461538 300.665143"></polygon>
        <polygon id="path-7" points="3.16461538 18.6285714 118.58 18.6285714 118.58 300.665143 3.16461538 300.665143"></polygon>
        <polygon id="path-8" points="3.4 20 127.4 20 127.4 322.8 3.4 322.8"></polygon>
        <polygon id="path-9" points="3.4 20 127.4 20 127.4 322.8 3.4 322.8"></polygon>
    </defs>
    <g id="Mockups" stroke="none" stroke-width="1" fill="none" fill-rule="evenodd">
        <g id="Step-3" transform="translate(-864.000000, -126.000000)">
            <g id="Group" transform="translate(864.000000, 126.000000)">
                <g id="Shelf" transform="translate(88.000000, 0.000000)">
                    <path d="M2.85076923,275.785263 L2.85076923,291.382737" id="Line-3" stroke="#5A5959" stroke-width="6" stroke-linecap="square"></path>
                    <path d="M106.82,275.785263 L106.82,291.382737" id="Line-3" stroke="#5A5959" stroke-width="6" stroke-linecap="square"></path>
                    <path d="M20.1230769,275.772 L20.1230769,277.032" id="Line-3" stroke="#5A5959" stroke-width="6" stroke-linecap="square"></path>
                    <path d="M93.2369231,275.772 L93.2369231,277.032" id="Line-3" stroke="#5A5959" stroke-width="6" stroke-linecap="square"></path>
                    <g id="Rectangle-5">
                        <use fill="#F5C22E" fill-rule="evenodd" xlink:href="#path-1"></use>
                        <path stroke="#5A5959" stroke-width="3" d="M1.35076923,15.3 L108.32,15.3 L108.32,272.652 L1.35076923,272.652 L1.35076923,15.3 Z"></path>
                    </g>
                    <polygon id="Rectangle-6" fill="#C39718" fill-rule="evenodd" points="13.0535545 46.032 96.6730178 46.032 106.82 59.808 2.85076923 59.808"></polygon>
                    <polygon id="Rectangle-6" fill="#3F3F3F" fill-rule="evenodd" points="11.5356812 0 97.5208648 0 109 14.448 0 14.448"></polygon>
                    <path d="M12.9123077,17.64 L12.9123077,47.44992" id="Line-2" stroke="#C39718" stroke-width="2" stroke-linecap="square"></path>
                    <path d="M96.5907692,17.64 L96.5907692,47.44992" id="Line-2" stroke="#C39718" stroke-width="2" stroke-linecap="square"></path>
                    <polygon id="Rectangle-6" fill="#C39718" fill-rule="evenodd" points="12.7181699 89.04 96.3376332 89.04 106.484615 102.816 2.51538462 102.816"></polygon>
                    <path d="M12.9123077,63 L12.9123077,90.28992" id="Line-2" stroke="#C39718" stroke-width="2" stroke-linecap="square"></path>
                    <path d="M95.7523077,63 L95.7523077,90.45792" id="Line-2" stroke="#C39718" stroke-width="2" stroke-linecap="square"></path>
                    <polygon id="Rectangle-6" fill="#C39718" fill-rule="evenodd" points="12.7181699 131.04 96.3376332 131.04 106.484615 144.816 2.51538462 144.816"></polygon>
                    <path d="M12.9123077,105 L12.9123077,132.28992" id="Line-2" stroke="#C39718" stroke-width="2" stroke-linecap="square"></path>
                    <path d="M95.7523077,105 L95.7523077,132.45792" id="Line-2" stroke="#C39718" stroke-width="2" stroke-linecap="square"></path>
                    <polygon id="Rectangle-6" fill="#C39718" fill-rule="evenodd" points="12.7181699 173.04 96.3376332 173.04 106.484615 186.816 2.51538462 186.816"></polygon>
                    <path d="M12.5210256,147 L12.5210256,174.28992" id="Line-2" stroke="#C39718" stroke-width="2" stroke-linecap="square"></path>
                    <path d="M95.4169231,147 L95.4169231,174.45792" id="Line-2" stroke="#C39718" stroke-width="2" stroke-linecap="square"></path>
                    <polygon id="Rectangle-6" fill="#C39718" fill-rule="evenodd" points="12.7181699 215.04 96.3376332 215.04 106.484615 228.816 2.51538462 228.816"></polygon>
                    <path d="M12.5210256,189 L12.5210256,216.28992" id="Line-2" stroke="#C39718" stroke-width="2" stroke-linecap="square"></path>
                    <path d="M95.4169231,189.672 L95.4169231,217.12992" id="Line-2" stroke="#C39718" stroke-width="2" stroke-linecap="square"></path>
                    <polygon id="Rectangle-6" fill="#C39718" fill-rule="evenodd" points="12.7181699 257.04 96.3376332 257.04 106.484615 270.816 2.51538462 270.816"></polygon>
                    <path d="M12.5210256,231 L12.5210256,258.28992" id="Line-2" stroke="#C39718" stroke-width="2" stroke-linecap="square"></path>
                    <path d="M95.4169231,231.672 L95.4169231,259.12992" id="Line-2" stroke="#C39718" stroke-width="2" stroke-linecap="square"></path>
                    <path d="M2.09615385,61.068 L107.403515,61.068" id="Line" stroke="#5A5959" stroke-width="3" stroke-linecap="square"></path>
                    <path d="M2.43489231,104.076 L107.235877,104.076" id="Line" stroke="#5A5959" stroke-width="3" stroke-linecap="square"></path>
                    <path d="M3.27340838,145.236 L106.397361,145.236" id="Line" stroke="#5A5959" stroke-width="3" stroke-linecap="square"></path>
                    <path d="M3.27340838,187.572 L106.397361,187.572" id="Line" stroke="#5A5959" stroke-width="3" stroke-linecap="square"></path>
                    <path d="M3.27340838,229.572 L106.397361,229.572" id="Line" stroke="#5A5959" stroke-width="3" stroke-linecap="square"></path>
                </g>
                <g id="Shelf" transform="translate(217.000000, 0.000000)">
                    <path d="M2.85076923,275.785263 L2.85076923,291.382737" id="Line-3" stroke="#5A5959" stroke-width="6" stroke-linecap="square"></path>
                    <path d="M106.82,275.785263 L106.82,291.382737" id="Line-3" stroke="#5A5959" stroke-width="6" stroke-linecap="square"></path>
                    <path d="M20.1230769,275.772 L20.1230769,277.032" id="Line-3" stroke="#5A5959" stroke-width="6" stroke-linecap="square"></path>
                    <path d="M93.2369231,275.772 L93.2369231,277.032" id="Line-3" stroke="#5A5959" stroke-width="6" stroke-linecap="square"></path>
                    <g id="Rectangle-5">
                        <use fill="#F5C22E" fill-rule="evenodd" xlink:href="#path-2"></use>
                        <path stroke="#5A5959" stroke-width="3" d="M1.35076923,15.3 L108.32,15.3 L108.32,272.652 L1.35076923,272.652 L1.35076923,15.3 Z"></path>
                    </g>
                    <polygon id="Rectangle-6" fill="#C39718" fill-rule="evenodd" points="13.0535545 46.032 96.6730178 46.032 106.82 59.808 2.85076923 59.808"></polygon>
                    <polygon id="Rectangle-6" fill="#3F3F3F" fill-rule="evenodd" points="11.5356812 0 97.5208648 0 109 14.448 0 14.448"></polygon>
                    <path d="M12.9123077,17.64 L12.9123077,47.44992" id="Line-2" stroke="#C39718" stroke-width="2" stroke-linecap="square"></path>
                    <path d="M96.5907692,17.64 L96.5907692,47.44992" id="Line-2" stroke="#C39718" stroke-width="2" stroke-linecap="square"></path>
                    <polygon id="Rectangle-6" fill="#C39718" fill-rule="evenodd" points="12.7181699 89.04 96.3376332 89.04 106.484615 102.816 2.51538462 102.816"></polygon>
                    <path d="M12.9123077,63 L12.9123077,90.28992" id="Line-2" stroke="#C39718" stroke-width="2" stroke-linecap="square"></path>
                    <path d="M95.7523077,63 L95.7523077,90.45792" id="Line-2" stroke="#C39718" stroke-width="2" stroke-linecap="square"></path>
                    <polygon id="Rectangle-6" fill="#C39718" fill-rule="evenodd" points="12.7181699 131.04 96.3376332 131.04 106.484615 144.816 2.51538462 144.816"></polygon>
                    <path d="M12.9123077,105 L12.9123077,132.28992" id="Line-2" stroke="#C39718" stroke-width="2" stroke-linecap="square"></path>
                    <path d="M95.7523077,105 L95.7523077,132.45792" id="Line-2" stroke="#C39718" stroke-width="2" stroke-linecap="square"></path>
                    <polygon id="Rectangle-6" fill="#C39718" fill-rule="evenodd" points="12.7181699 173.04 96.3376332 173.04 106.484615 186.816 2.51538462 186.816"></polygon>
                    <path d="M12.5210256,147 L12.5210256,174.28992" id="Line-2" stroke="#C39718" stroke-width="2" stroke-linecap="square"></path>
                    <path d="M95.4169231,147 L95.4169231,174.45792" id="Line-2" stroke="#C39718" stroke-width="2" stroke-linecap="square"></path>
                    <polygon id="Rectangle-6" fill="#C39718" fill-rule="evenodd" points="12.7181699 215.04 96.3376332 215.04 106.484615 228.816 2.51538462 228.816"></polygon>
                    <path d="M12.5210256,189 L12.5210256,216.28992" id="Line-2" stroke="#C39718" stroke-width="2" stroke-linecap="square"></path>
                    <path d="M95.4169231,189.672 L95.4169231,217.12992" id="Line-2" stroke="#C39718" stroke-width="2" stroke-linecap="square"></path>
                    <polygon id="Rectangle-6" fill="#C39718" fill-rule="evenodd" points="12.7181699 257.04 96.3376332 257.04 106.484615 270.816 2.51538462 270.816"></polygon>
                    <path d="M12.5210256,231 L12.5210256,258.28992" id="Line-2" stroke="#C39718" stroke-width="2" stroke-linecap="square"></path>
                    <path d="M95.4169231,231.672 L95.4169231,259.12992" id="Line-2" stroke="#C39718" stroke-width="2" stroke-linecap="square"></path>
                    <path d="M2.09615385,61.068 L107.403515,61.068" id="Line" stroke="#5A5959" stroke-width="3" stroke-linecap="square"></path>
                    <path d="M2.43489231,104.076 L107.235877,104.076" id="Line" stroke="#5A5959" stroke-width="3" stroke-linecap="square"></path>
                    <path d="M3.27340838,145.236 L106.397361,145.236" id="Line" stroke="#5A5959" stroke-width="3" stroke-linecap="square"></path>
                    <path d="M3.27340838,187.572 L106.397361,187.572" id="Line" stroke="#5A5959" stroke-width="3" stroke-linecap="square"></path>
                    <path d="M3.27340838,229.572 L106.397361,229.572" id="Line" stroke="#5A5959" stroke-width="3" stroke-linecap="square"></path>
                </g>
                <g id="Shelf" transform="translate(346.000000, 0.000000)">
                    <path d="M2.85076923,275.785263 L2.85076923,291.382737" id="Line-3" stroke="#5A5959" stroke-width="6" stroke-linecap="square"></path>
                    <path d="M106.82,275.785263 L106.82,291.382737" id="Line-3" stroke="#5A5959" stroke-width="6" stroke-linecap="square"></path>
                    <path d="M20.1230769,275.772 L20.1230769,277.032" id="Line-3" stroke="#5A5959" stroke-width="6" stroke-linecap="square"></path>
                    <path d="M93.2369231,275.772 L93.2369231,277.032" id="Line-3" stroke="#5A5959" stroke-width="6" stroke-linecap="square"></path>
                    <g id="Rectangle-5">
                        <use fill="#F5C22E" fill-rule="evenodd" xlink:href="#path-3"></use>
                        <path stroke="#5A5959" stroke-width="3" d="M1.35076923,15.3 L108.32,15.3 L108.32,272.652 L1.35076923,272.652 L1.35076923,15.3 Z"></path>
                    </g>
                    <polygon id="Rectangle-6" fill="#C39718" fill-rule="evenodd" points="13.0535545 46.032 96.6730178 46.032 106.82 59.808 2.85076923 59.808"></polygon>
                    <polygon id="Rectangle-6" fill="#3F3F3F" fill-rule="evenodd" points="11.5356812 0 97.5208648 0 109 14.448 0 14.448"></polygon>
                    <path d="M12.9123077,17.64 L12.9123077,47.44992" id="Line-2" stroke="#C39718" stroke-width="2" stroke-linecap="square"></path>
                    <path d="M96.5907692,17.64 L96.5907692,47.44992" id="Line-2" stroke="#C39718" stroke-width="2" stroke-linecap="square"></path>
                    <polygon id="Rectangle-6" fill="#C39718" fill-rule="evenodd" points="12.7181699 89.04 96.3376332 89.04 106.484615 102.816 2.51538462 102.816"></polygon>
                    <path d="M12.9123077,63 L12.9123077,90.28992" id="Line-2" stroke="#C39718" stroke-width="2" stroke-linecap="square"></path>
                    <path d="M95.7523077,63 L95.7523077,90.45792" id="Line-2" stroke="#C39718" stroke-width="2" stroke-linecap="square"></path>
                    <polygon id="Rectangle-6" fill="#C39718" fill-rule="evenodd" points="12.7181699 131.04 96.3376332 131.04 106.484615 144.816 2.51538462 144.816"></polygon>
                    <path d="M12.9123077,105 L12.9123077,132.28992" id="Line-2" stroke="#C39718" stroke-width="2" stroke-linecap="square"></path>
                    <path d="M95.7523077,105 L95.7523077,132.45792" id="Line-2" stroke="#C39718" stroke-width="2" stroke-linecap="square"></path>
                    <polygon id="Rectangle-6" fill="#C39718" fill-rule="evenodd" points="12.7181699 173.04 96.3376332 173.04 106.484615 186.816 2.51538462 186.816"></polygon>
                    <path d="M12.5210256,147 L12.5210256,174.28992" id="Line-2" stroke="#C39718" stroke-width="2" stroke-linecap="square"></path>
                    <path d="M95.4169231,147 L95.4169231,174.45792" id="Line-2" stroke="#C39718" stroke-width="2" stroke-linecap="square"></path>
                    <polygon id="Rectangle-6" fill="#C39718" fill-rule="evenodd" points="12.7181699 215.04 96.3376332 215.04 106.484615 228.816 2.51538462 228.816"></polygon>
                    <path d="M12.5210256,189 L12.5210256,216.28992" id="Line-2" stroke="#C39718" stroke-width="2" stroke-linecap="square"></path>
                    <path d="M95.4169231,189.672 L95.4169231,217.12992" id="Line-2" stroke="#C39718" stroke-width="2" stroke-linecap="square"></path>
                    <polygon id="Rectangle-6" fill="#C39718" fill-rule="evenodd" points="12.7181699 257.04 96.3376332 257.04 106.484615 270.816 2.51538462 270.816"></polygon>
                    <path d="M12.5210256,231 L12.5210256,258.28992" id="Line-2" stroke="#C39718" stroke-width="2" stroke-linecap="square"></path>
                    <path d="M95.4169231,231.672 L95.4169231,259.12992" id="Line-2" stroke="#C39718" stroke-width="2" stroke-linecap="square"></path>
                    <path d="M2.09615385,61.068 L107.403515,61.068" id="Line" stroke="#5A5959" stroke-width="3" stroke-linecap="square"></path>
                    <path d="M2.43489231,104.076 L107.235877,104.076" id="Line" stroke="#5A5959" stroke-width="3" stroke-linecap="square"></path>
                    <path d="M3.27340838,145.236 L106.397361,145.236" id="Line" stroke="#5A5959" stroke-width="3" stroke-linecap="square"></path>
                    <path d="M3.27340838,187.572 L106.397361,187.572" id="Line" stroke="#5A5959" stroke-width="3" stroke-linecap="square"></path>
                    <path d="M3.27340838,229.572 L106.397361,229.572" id="Line" stroke="#5A5959" stroke-width="3" stroke-linecap="square"></path>
                </g>
                <g id="Shelf" transform="translate(0.000000, 84.000000)">
                    <path d="M3.16461538,305.802707 L3.16461538,323.097865" id="Line-3" stroke="#5A5959" stroke-width="6" stroke-linecap="square"></path>
                    <path d="M118.58,305.802707 L118.58,323.097865" id="Line-3" stroke="#5A5959" stroke-width="6" stroke-linecap="square"></path>
                    <path d="M22.3384615,305.788 L22.3384615,307.185143" id="Line-3" stroke="#5A5959" stroke-width="6" stroke-linecap="square"></path>
                    <path d="M103.501538,305.788 L103.501538,307.185143" id="Line-3" stroke="#5A5959" stroke-width="6" stroke-linecap="square"></path>
                    <g id="Rectangle-5">
                        <use fill="#F5C22E" fill-rule="evenodd" xlink:href="#path-4"></use>
                        <path stroke="#5A5959" stroke-width="3" d="M1.66461538,17.1285714 L120.08,17.1285714 L120.08,302.165143 L1.66461538,302.165143 L1.66461538,17.1285714 Z"></path>
                    </g>
                    <polygon id="Rectangle-6" fill="#C39718" fill-rule="evenodd" points="14.490643 51.0422857 107.315919 51.0422857 118.58 66.3177143 3.16461538 66.3177143"></polygon>
                    <polygon id="Rectangle-6" fill="#3F3F3F" fill-rule="evenodd" points="12.8056645 0 108.257107 0 121 16.0205714 0 16.0205714"></polygon>
                    <path d="M14.3338462,19.56 L14.3338462,52.6145371" id="Line-2" stroke="#C39718" stroke-width="2" stroke-linecap="square"></path>
                    <path d="M107.224615,19.56 L107.224615,52.6145371" id="Line-2" stroke="#C39718" stroke-width="2" stroke-linecap="square"></path>
                    <polygon id="Rectangle-6" fill="#C39718" fill-rule="evenodd" points="14.1183354 98.7314286 106.943611 98.7314286 118.207692 114.006857 2.79230769 114.006857"></polygon>
                    <path d="M14.3338462,69.8571429 L14.3338462,100.117394" id="Line-2" stroke="#C39718" stroke-width="2" stroke-linecap="square"></path>
                    <path d="M106.293846,69.8571429 L106.293846,100.30368" id="Line-2" stroke="#C39718" stroke-width="2" stroke-linecap="square"></path>
                    <polygon id="Rectangle-6" fill="#C39718" fill-rule="evenodd" points="14.1183354 145.302857 106.943611 145.302857 118.207692 160.578286 2.79230769 160.578286"></polygon>
                    <path d="M14.3338462,116.428571 L14.3338462,146.688823" id="Line-2" stroke="#C39718" stroke-width="2" stroke-linecap="square"></path>
                    <path d="M106.293846,116.428571 L106.293846,146.875109" id="Line-2" stroke="#C39718" stroke-width="2" stroke-linecap="square"></path>
                    <polygon id="Rectangle-6" fill="#C39718" fill-rule="evenodd" points="14.1183354 191.874286 106.943611 191.874286 118.207692 207.149714 2.79230769 207.149714"></polygon>
                    <path d="M13.8994872,163 L13.8994872,193.260251" id="Line-2" stroke="#C39718" stroke-width="2" stroke-linecap="square"></path>
                    <path d="M105.921538,163 L105.921538,193.446537" id="Line-2" stroke="#C39718" stroke-width="2" stroke-linecap="square"></path>
                    <polygon id="Rectangle-6" fill="#C39718" fill-rule="evenodd" points="14.1183354 238.445714 106.943611 238.445714 118.207692 253.721143 2.79230769 253.721143"></polygon>
                    <path d="M13.8994872,209.571429 L13.8994872,239.83168" id="Line-2" stroke="#C39718" stroke-width="2" stroke-linecap="square"></path>
                    <path d="M105.921538,210.316571 L105.921538,240.763109" id="Line-2" stroke="#C39718" stroke-width="2" stroke-linecap="square"></path>
                    <polygon id="Rectangle-6" fill="#C39718" fill-rule="evenodd" points="14.1183354 285.017143 106.943611 285.017143 118.207692 300.292571 2.79230769 300.292571"></polygon>
                    <path d="M13.8994872,256.142857 L13.8994872,286.403109" id="Line-2" stroke="#C39718" stroke-width="2" stroke-linecap="square"></path>
                    <path d="M105.921538,256.888 L105.921538,287.334537" id="Line-2" stroke="#C39718" stroke-width="2" stroke-linecap="square"></path>
                    <path d="M2.32692308,67.7148571 L119.227755,67.7148571" id="Line" stroke="#5A5959" stroke-width="3" stroke-linecap="square"></path>
                    <path d="M2.70295385,115.404 L119.041662,115.404" id="Line" stroke="#5A5959" stroke-width="3" stroke-linecap="square"></path>
                    <path d="M3.63378361,161.044 L118.110832,161.044" id="Line" stroke="#5A5959" stroke-width="3" stroke-linecap="square"></path>
                    <path d="M3.63378361,207.988 L118.110832,207.988" id="Line" stroke="#5A5959" stroke-width="3" stroke-linecap="square"></path>
                    <path d="M3.63378361,254.559429 L118.110832,254.559429" id="Line" stroke="#5A5959" stroke-width="3" stroke-linecap="square"></path>
                </g>
                <g id="Shelf" transform="translate(141.000000, 84.000000)">
                    <path d="M3.16461538,305.802707 L3.16461538,323.097865" id="Line-3" stroke="#5A5959" stroke-width="6" stroke-linecap="square"></path>
                    <path d="M118.58,305.802707 L118.58,323.097865" id="Line-3" stroke="#5A5959" stroke-width="6" stroke-linecap="square"></path>
                    <path d="M22.3384615,305.788 L22.3384615,307.185143" id="Line-3" stroke="#5A5959" stroke-width="6" stroke-linecap="square"></path>
                    <path d="M103.501538,305.788 L103.501538,307.185143" id="Line-3" stroke="#5A5959" stroke-width="6" stroke-linecap="square"></path>
                    <g id="Rectangle-5">
                        <use fill="#F5C22E" fill-rule="evenodd" xlink:href="#path-5"></use>
                        <path stroke="#5A5959" stroke-width="3" d="M1.66461538,17.1285714 L120.08,17.1285714 L120.08,302.165143 L1.66461538,302.165143 L1.66461538,17.1285714 Z"></path>
                    </g>
                    <polygon id="Rectangle-6" fill="#C39718" fill-rule="evenodd" points="14.490643 51.0422857 107.315919 51.0422857 118.58 66.3177143 3.16461538 66.3177143"></polygon>
                    <polygon id="Rectangle-6" fill="#3F3F3F" fill-rule="evenodd" points="12.8056645 0 108.257107 0 121 16.0205714 0 16.0205714"></polygon>
                    <path d="M14.3338462,19.56 L14.3338462,52.6145371" id="Line-2" stroke="#C39718" stroke-width="2" stroke-linecap="square"></path>
                    <path d="M107.224615,19.56 L107.224615,52.6145371" id="Line-2" stroke="#C39718" stroke-width="2" stroke-linecap="square"></path>
                    <polygon id="Rectangle-6" fill="#C39718" fill-rule="evenodd" points="14.1183354 98.7314286 106.943611 98.7314286 118.207692 114.006857 2.79230769 114.006857"></polygon>
                    <path d="M14.3338462,69.8571429 L14.3338462,100.117394" id="Line-2" stroke="#C39718" stroke-width="2" stroke-linecap="square"></path>
                    <path d="M106.293846,69.8571429 L106.293846,100.30368" id="Line-2" stroke="#C39718" stroke-width="2" stroke-linecap="square"></path>
                    <polygon id="Rectangle-6" fill="#C39718" fill-rule="evenodd" points="14.1183354 145.302857 106.943611 145.302857 118.207692 160.578286 2.79230769 160.578286"></polygon>
                    <path d="M14.3338462,116.428571 L14.3338462,146.688823" id="Line-2" stroke="#C39718" stroke-width="2" stroke-linecap="square"></path>
                    <path d="M106.293846,116.428571 L106.293846,146.875109" id="Line-2" stroke="#C39718" stroke-width="2" stroke-linecap="square"></path>
                    <polygon id="Rectangle-6" fill="#C39718" fill-rule="evenodd" points="14.1183354 191.874286 106.943611 191.874286 118.207692 207.149714 2.79230769 207.149714"></polygon>
                    <path d="M13.8994872,163 L13.8994872,193.260251" id="Line-2" stroke="#C39718" stroke-width="2" stroke-linecap="square"></path>
                    <path d="M105.921538,163 L105.921538,193.446537" id="Line-2" stroke="#C39718" stroke-width="2" stroke-linecap="square"></path>
                    <polygon id="Rectangle-6" fill="#C39718" fill-rule="evenodd" points="14.1183354 238.445714 106.943611 238.445714 118.207692 253.721143 2.79230769 253.721143"></polygon>
                    <path d="M13.8994872,209.571429 L13.8994872,239.83168" id="Line-2" stroke="#C39718" stroke-width="2" stroke-linecap="square"></path>
                    <path d="M105.921538,210.316571 L105.921538,240.763109" id="Line-2" stroke="#C39718" stroke-width="2" stroke-linecap="square"></path>
                    <polygon id="Rectangle-6" fill="#C39718" fill-rule="evenodd" points="14.1183354 285.017143 106.943611 285.017143 118.207692 300.292571 2.79230769 300.292571"></polygon>
                    <path d="M13.8994872,256.142857 L13.8994872,286.403109" id="Line-2" stroke="#C39718" stroke-width="2" stroke-linecap="square"></path>
                    <path d="M105.921538,256.888 L105.921538,287.334537" id="Line-2" stroke="#C39718" stroke-width="2" stroke-linecap="square"></path>
                    <path d="M2.32692308,67.7148571 L119.227755,67.7148571" id="Line" stroke="#5A5959" stroke-width="3" stroke-linecap="square"></path>
                    <path d="M2.70295385,115.404 L119.041662,115.404" id="Line" stroke="#5A5959" stroke-width="3" stroke-linecap="square"></path>
                    <path d="M3.63378361,161.044 L118.110832,161.044" id="Line" stroke="#5A5959" stroke-width="3" stroke-linecap="square"></path>
                    <path d="M3.63378361,207.988 L118.110832,207.988" id="Line" stroke="#5A5959" stroke-width="3" stroke-linecap="square"></path>
                    <path d="M3.63378361,254.559429 L118.110832,254.559429" id="Line" stroke="#5A5959" stroke-width="3" stroke-linecap="square"></path>
                </g>
                <g id="Shelf" transform="translate(282.000000, 84.000000)">
                    <path d="M3.16461538,305.802707 L3.16461538,323.097865" id="Line-3" stroke="#5A5959" stroke-width="6" stroke-linecap="square"></path>
                    <path d="M118.58,305.802707 L118.58,323.097865" id="Line-3" stroke="#5A5959" stroke-width="6" stroke-linecap="square"></path>
                    <path d="M22.3384615,305.788 L22.3384615,307.185143" id="Line-3" stroke="#5A5959" stroke-width="6" stroke-linecap="square"></path>
                    <path d="M103.501538,305.788 L103.501538,307.185143" id="Line-3" stroke="#5A5959" stroke-width="6" stroke-linecap="square"></path>
                    <g id="Rectangle-5">
                        <use fill="#F5C22E" fill-rule="evenodd" xlink:href="#path-6"></use>
                        <path stroke="#5A5959" stroke-width="3" d="M1.66461538,17.1285714 L120.08,17.1285714 L120.08,302.165143 L1.66461538,302.165143 L1.66461538,17.1285714 Z"></path>
                    </g>
                    <polygon id="Rectangle-6" fill="#C39718" fill-rule="evenodd" points="14.490643 51.0422857 107.315919 51.0422857 118.58 66.3177143 3.16461538 66.3177143"></polygon>
                    <polygon id="Rectangle-6" fill="#3F3F3F" fill-rule="evenodd" points="12.8056645 0 108.257107 0 121 16.0205714 0 16.0205714"></polygon>
                    <path d="M14.3338462,19.56 L14.3338462,52.6145371" id="Line-2" stroke="#C39718" stroke-width="2" stroke-linecap="square"></path>
                    <path d="M107.224615,19.56 L107.224615,52.6145371" id="Line-2" stroke="#C39718" stroke-width="2" stroke-linecap="square"></path>
                    <polygon id="Rectangle-6" fill="#C39718" fill-rule="evenodd" points="14.1183354 98.7314286 106.943611 98.7314286 118.207692 114.006857 2.79230769 114.006857"></polygon>
                    <path d="M14.3338462,69.8571429 L14.3338462,100.117394" id="Line-2" stroke="#C39718" stroke-width="2" stroke-linecap="square"></path>
                    <path d="M106.293846,69.8571429 L106.293846,100.30368" id="Line-2" stroke="#C39718" stroke-width="2" stroke-linecap="square"></path>
                    <polygon id="Rectangle-6" fill="#C39718" fill-rule="evenodd" points="14.1183354 145.302857 106.943611 145.302857 118.207692 160.578286 2.79230769 160.578286"></polygon>
                    <path d="M14.3338462,116.428571 L14.3338462,146.688823" id="Line-2" stroke="#C39718" stroke-width="2" stroke-linecap="square"></path>
                    <path d="M106.293846,116.428571 L106.293846,146.875109" id="Line-2" stroke="#C39718" stroke-width="2" stroke-linecap="square"></path>
                    <polygon id="Rectangle-6" fill="#C39718" fill-rule="evenodd" points="14.1183354 191.874286 106.943611 191.874286 118.207692 207.149714 2.79230769 207.149714"></polygon>
                    <path d="M13.8994872,163 L13.8994872,193.260251" id="Line-2" stroke="#C39718" stroke-width="2" stroke-linecap="square"></path>
                    <path d="M105.921538,163 L105.921538,193.446537" id="Line-2" stroke="#C39718" stroke-width="2" stroke-linecap="square"></path>
                    <polygon id="Rectangle-6" fill="#C39718" fill-rule="evenodd" points="14.1183354 238.445714 106.943611 238.445714 118.207692 253.721143 2.79230769 253.721143"></polygon>
                    <path d="M13.8994872,209.571429 L13.8994872,239.83168" id="Line-2" stroke="#C39718" stroke-width="2" stroke-linecap="square"></path>
                    <path d="M105.921538,210.316571 L105.921538,240.763109" id="Line-2" stroke="#C39718" stroke-width="2" stroke-linecap="square"></path>
                    <polygon id="Rectangle-6" fill="#C39718" fill-rule="evenodd" points="14.1183354 285.017143 106.943611 285.017143 118.207692 300.292571 2.79230769 300.292571"></polygon>
                    <path d="M13.8994872,256.142857 L13.8994872,286.403109" id="Line-2" stroke="#C39718" stroke-width="2" stroke-linecap="square"></path>
                    <path d="M105.921538,256.888 L105.921538,287.334537" id="Line-2" stroke="#C39718" stroke-width="2" stroke-linecap="square"></path>
                    <path d="M2.32692308,67.7148571 L119.227755,67.7148571" id="Line" stroke="#5A5959" stroke-width="3" stroke-linecap="square"></path>
                    <path d="M2.70295385,115.404 L119.041662,115.404" id="Line" stroke="#5A5959" stroke-width="3" stroke-linecap="square"></path>
                    <path d="M3.63378361,161.044 L118.110832,161.044" id="Line" stroke="#5A5959" stroke-width="3" stroke-linecap="square"></path>
                    <path d="M3.63378361,207.988 L118.110832,207.988" id="Line" stroke="#5A5959" stroke-width="3" stroke-linecap="square"></path>
                    <path d="M3.63378361,254.559429 L118.110832,254.559429" id="Line" stroke="#5A5959" stroke-width="3" stroke-linecap="square"></path>
                </g>
                <g id="Shelf" transform="translate(423.000000, 84.000000)">
                    <path d="M3.16461538,305.802707 L3.16461538,323.097865" id="Line-3" stroke="#5A5959" stroke-width="6" stroke-linecap="square"></path>
                    <path d="M118.58,305.802707 L118.58,323.097865" id="Line-3" stroke="#5A5959" stroke-width="6" stroke-linecap="square"></path>
                    <path d="M22.3384615,305.788 L22.3384615,307.185143" id="Line-3" stroke="#5A5959" stroke-width="6" stroke-linecap="square"></path>
                    <path d="M103.501538,305.788 L103.501538,307.185143" id="Line-3" stroke="#5A5959" stroke-width="6" stroke-linecap="square"></path>
                    <g id="Rectangle-5">
                        <use fill="#F5C22E" fill-rule="evenodd" xlink:href="#path-7"></use>
                        <path stroke="#5A5959" stroke-width="3" d="M1.66461538,17.1285714 L120.08,17.1285714 L120.08,302.165143 L1.66461538,302.165143 L1.66461538,17.1285714 Z"></path>
                    </g>
                    <polygon id="Rectangle-6" fill="#C39718" fill-rule="evenodd" points="14.490643 51.0422857 107.315919 51.0422857 118.58 66.3177143 3.16461538 66.3177143"></polygon>
                    <polygon id="Rectangle-6" fill="#3F3F3F" fill-rule="evenodd" points="12.8056645 0 108.257107 0 121 16.0205714 0 16.0205714"></polygon>
                    <path d="M14.3338462,19.56 L14.3338462,52.6145371" id="Line-2" stroke="#C39718" stroke-width="2" stroke-linecap="square"></path>
                    <path d="M107.224615,19.56 L107.224615,52.6145371" id="Line-2" stroke="#C39718" stroke-width="2" stroke-linecap="square"></path>
                    <polygon id="Rectangle-6" fill="#C39718" fill-rule="evenodd" points="14.1183354 98.7314286 106.943611 98.7314286 118.207692 114.006857 2.79230769 114.006857"></polygon>
                    <path d="M14.3338462,69.8571429 L14.3338462,100.117394" id="Line-2" stroke="#C39718" stroke-width="2" stroke-linecap="square"></path>
                    <path d="M106.293846,69.8571429 L106.293846,100.30368" id="Line-2" stroke="#C39718" stroke-width="2" stroke-linecap="square"></path>
                    <polygon id="Rectangle-6" fill="#C39718" fill-rule="evenodd" points="14.1183354 145.302857 106.943611 145.302857 118.207692 160.578286 2.79230769 160.578286"></polygon>
                    <path d="M14.3338462,116.428571 L14.3338462,146.688823" id="Line-2" stroke="#C39718" stroke-width="2" stroke-linecap="square"></path>
                    <path d="M106.293846,116.428571 L106.293846,146.875109" id="Line-2" stroke="#C39718" stroke-width="2" stroke-linecap="square"></path>
                    <polygon id="Rectangle-6" fill="#C39718" fill-rule="evenodd" points="14.1183354 191.874286 106.943611 191.874286 118.207692 207.149714 2.79230769 207.149714"></polygon>
                    <path d="M13.8994872,163 L13.8994872,193.260251" id="Line-2" stroke="#C39718" stroke-width="2" stroke-linecap="square"></path>
                    <path d="M105.921538,163 L105.921538,193.446537" id="Line-2" stroke="#C39718" stroke-width="2" stroke-linecap="square"></path>
                    <polygon id="Rectangle-6" fill="#C39718" fill-rule="evenodd" points="14.1183354 238.445714 106.943611 238.445714 118.207692 253.721143 2.79230769 253.721143"></polygon>
                    <path d="M13.8994872,209.571429 L13.8994872,239.83168" id="Line-2" stroke="#C39718" stroke-width="2" stroke-linecap="square"></path>
                    <path d="M105.921538,210.316571 L105.921538,240.763109" id="Line-2" stroke="#C39718" stroke-width="2" stroke-linecap="square"></path>
                    <polygon id="Rectangle-6" fill="#C39718" fill-rule="evenodd" points="14.1183354 285.017143 106.943611 285.017143 118.207692 300.292571 2.79230769 300.292571"></polygon>
                    <path d="M13.8994872,256.142857 L13.8994872,286.403109" id="Line-2" stroke="#C39718" stroke-width="2" stroke-linecap="square"></path>
                    <path d="M105.921538,256.888 L105.921538,287.334537" id="Line-2" stroke="#C39718" stroke-width="2" stroke-linecap="square"></path>
                    <path d="M2.32692308,67.7148571 L119.227755,67.7148571" id="Line" stroke="#5A5959" stroke-width="3" stroke-linecap="square"></path>
                    <path d="M2.70295385,115.404 L119.041662,115.404" id="Line" stroke="#5A5959" stroke-width="3" stroke-linecap="square"></path>
                    <path d="M3.63378361,161.044 L118.110832,161.044" id="Line" stroke="#5A5959" stroke-width="3" stroke-linecap="square"></path>
                    <path d="M3.63378361,207.988 L118.110832,207.988" id="Line" stroke="#5A5959" stroke-width="3" stroke-linecap="square"></path>
                    <path d="M3.63378361,254.559429 L118.110832,254.559429" id="Line" stroke="#5A5959" stroke-width="3" stroke-linecap="square"></path>
                </g>
                <g id="Shelf" transform="translate(57.000000, 174.000000)">
                    <path d="M3.4,328.315789 L3.4,346.884211" id="Line-3" stroke="#5A5959" stroke-width="6" stroke-linecap="square"></path>
                    <path d="M127.4,328.315789 L127.4,346.884211" id="Line-3" stroke="#5A5959" stroke-width="6" stroke-linecap="square"></path>
                    <path d="M24,328.3 L24,329.8" id="Line-3" stroke="#5A5959" stroke-width="6" stroke-linecap="square"></path>
                    <path d="M111.2,328.3 L111.2,329.8" id="Line-3" stroke="#5A5959" stroke-width="6" stroke-linecap="square"></path>
                    <g id="Rectangle-5">
                        <use fill="#F5C22E" fill-rule="evenodd" xlink:href="#path-8"></use>
                        <path stroke="#5A5959" stroke-width="3" d="M1.9,18.5 L128.9,18.5 L128.9,324.3 L1.9,324.3 L1.9,18.5 Z"></path>
                    </g>
                    <polygon id="Rectangle-6" fill="#C39718" fill-rule="evenodd" points="15.5684595 54.8 115.298095 54.8 127.4 71.2 3.4 71.2"></polygon>
                    <polygon id="Rectangle-6" fill="#3F3F3F" fill-rule="evenodd" points="13.7581519 0 116.309288 0 130 17.2 0 17.2"></polygon>
                    <path d="M15.4,21 L15.4,56.488" id="Line-2" stroke="#C39718" stroke-width="2" stroke-linecap="square"></path>
                    <path d="M115.2,21 L115.2,56.488" id="Line-2" stroke="#C39718" stroke-width="2" stroke-linecap="square"></path>
                    <polygon id="Rectangle-6" fill="#C39718" fill-rule="evenodd" points="15.1684595 106 114.898095 106 127 122.4 3 122.4"></polygon>
                    <path d="M15.4,75 L15.4,107.488" id="Line-2" stroke="#C39718" stroke-width="2" stroke-linecap="square"></path>
                    <path d="M114.2,75 L114.2,107.688" id="Line-2" stroke="#C39718" stroke-width="2" stroke-linecap="square"></path>
                    <polygon id="Rectangle-6" fill="#C39718" fill-rule="evenodd" points="15.1684595 156 114.898095 156 127 172.4 3 172.4"></polygon>
                    <path d="M15.4,125 L15.4,157.488" id="Line-2" stroke="#C39718" stroke-width="2" stroke-linecap="square"></path>
                    <path d="M114.2,125 L114.2,157.688" id="Line-2" stroke="#C39718" stroke-width="2" stroke-linecap="square"></path>
                    <polygon id="Rectangle-6" fill="#C39718" fill-rule="evenodd" points="15.1684595 206 114.898095 206 127 222.4 3 222.4"></polygon>
                    <path d="M14.9333333,175 L14.9333333,207.488" id="Line-2" stroke="#C39718" stroke-width="2" stroke-linecap="square"></path>
                    <path d="M113.8,175 L113.8,207.688" id="Line-2" stroke="#C39718" stroke-width="2" stroke-linecap="square"></path>
                    <polygon id="Rectangle-6" fill="#C39718" fill-rule="evenodd" points="15.1684595 256 114.898095 256 127 272.4 3 272.4"></polygon>
                    <path d="M14.9333333,225 L14.9333333,257.488" id="Line-2" stroke="#C39718" stroke-width="2" stroke-linecap="square"></path>
                    <path d="M113.8,225.8 L113.8,258.488" id="Line-2" stroke="#C39718" stroke-width="2" stroke-linecap="square"></path>
                    <polygon id="Rectangle-6" fill="#C39718" fill-rule="evenodd" points="15.1684595 306 114.898095 306 127 322.4 3 322.4"></polygon>
                    <path d="M14.9333333,275 L14.9333333,307.488" id="Line-2" stroke="#C39718" stroke-width="2" stroke-linecap="square"></path>
                    <path d="M113.8,275.8 L113.8,308.488" id="Line-2" stroke="#C39718" stroke-width="2" stroke-linecap="square"></path>
                    <path d="M2.5,72.7 L128.095935,72.7" id="Line" stroke="#5A5959" stroke-width="3" stroke-linecap="square"></path>
                    <path d="M2.904,123.9 L127.896,123.9" id="Line" stroke="#5A5959" stroke-width="3" stroke-linecap="square"></path>
                    <path d="M3.90406504,172.9 L126.895935,172.9" id="Line" stroke="#5A5959" stroke-width="3" stroke-linecap="square"></path>
                    <path d="M3.90406504,223.3 L126.895935,223.3" id="Line" stroke="#5A5959" stroke-width="3" stroke-linecap="square"></path>
                    <path d="M3.90406504,273.3 L126.895935,273.3" id="Line" stroke="#5A5959" stroke-width="3" stroke-linecap="square"></path>
                </g>
                <g id="Shelf" transform="translate(357.000000, 174.000000)">
                    <path d="M3.4,328.315789 L3.4,346.884211" id="Line-3" stroke="#5A5959" stroke-width="6" stroke-linecap="square"></path>
                    <path d="M127.4,328.315789 L127.4,346.884211" id="Line-3" stroke="#5A5959" stroke-width="6" stroke-linecap="square"></path>
                    <path d="M24,328.3 L24,329.8" id="Line-3" stroke="#5A5959" stroke-width="6" stroke-linecap="square"></path>
                    <path d="M111.2,328.3 L111.2,329.8" id="Line-3" stroke="#5A5959" stroke-width="6" stroke-linecap="square"></path>
                    <g id="Rectangle-5">
                        <use fill="#F5C22E" fill-rule="evenodd" xlink:href="#path-9"></use>
                        <path stroke="#5A5959" stroke-width="3" d="M1.9,18.5 L128.9,18.5 L128.9,324.3 L1.9,324.3 L1.9,18.5 Z"></path>
                    </g>
                    <polygon id="Rectangle-6" fill="#C39718" fill-rule="evenodd" points="15.5684595 54.8 115.298095 54.8 127.4 71.2 3.4 71.2"></polygon>
                    <polygon id="Rectangle-6" fill="#3F3F3F" fill-rule="evenodd" points="13.7581519 0 116.309288 0 130 17.2 0 17.2"></polygon>
                    <path d="M15.4,21 L15.4,56.488" id="Line-2" stroke="#C39718" stroke-width="2" stroke-linecap="square"></path>
                    <path d="M115.2,21 L115.2,56.488" id="Line-2" stroke="#C39718" stroke-width="2" stroke-linecap="square"></path>
                    <polygon id="Rectangle-6" fill="#C39718" fill-rule="evenodd" points="15.1684595 106 114.898095 106 127 122.4 3 122.4"></polygon>
                    <path d="M15.4,75 L15.4,107.488" id="Line-2" stroke="#C39718" stroke-width="2" stroke-linecap="square"></path>
                    <path d="M114.2,75 L114.2,107.688" id="Line-2" stroke="#C39718" stroke-width="2" stroke-linecap="square"></path>
                    <polygon id="Rectangle-6" fill="#C39718" fill-rule="evenodd" points="15.1684595 156 114.898095 156 127 172.4 3 172.4"></polygon>
                    <path d="M15.4,125 L15.4,157.488" id="Line-2" stroke="#C39718" stroke-width="2" stroke-linecap="square"></path>
                    <path d="M114.2,125 L114.2,157.688" id="Line-2" stroke="#C39718" stroke-width="2" stroke-linecap="square"></path>
                    <polygon id="Rectangle-6" fill="#C39718" fill-rule="evenodd" points="15.1684595 206 114.898095 206 127 222.4 3 222.4"></polygon>
                    <path d="M14.9333333,175 L14.9333333,207.488" id="Line-2" stroke="#C39718" stroke-width="2" stroke-linecap="square"></path>
                    <path d="M113.8,175 L113.8,207.688" id="Line-2" stroke="#C39718" stroke-width="2" stroke-linecap="square"></path>
                    <polygon id="Rectangle-6" fill="#C39718" fill-rule="evenodd" points="15.1684595 256 114.898095 256 127 272.4 3 272.4"></polygon>
                    <path d="M14.9333333,225 L14.9333333,257.488" id="Line-2" stroke="#C39718" stroke-width="2" stroke-linecap="square"></path>
                    <path d="M113.8,225.8 L113.8,258.488" id="Line-2" stroke="#C39718" stroke-width="2" stroke-linecap="square"></path>
                    <polygon id="Rectangle-6" fill="#C39718" fill-rule="evenodd" points="15.1684595 306 114.898095 306 127 322.4 3 322.4"></polygon>
                    <path d="M14.9333333,275 L14.9333333,307.488" id="Line-2" stroke="#C39718" stroke-width="2" stroke-linecap="square"></path>
                    <path d="M113.8,275.8 L113.8,308.488" id="Line-2" stroke="#C39718" stroke-width="2" stroke-linecap="square"></path>
                    <path d="M2.5,72.7 L128.095935,72.7" id="Line" stroke="#5A5959" stroke-width="3" stroke-linecap="square"></path>
                    <path d="M2.904,123.9 L127.896,123.9" id="Line" stroke="#5A5959" stroke-width="3" stroke-linecap="square"></path>
                    <path d="M3.90406504,172.9 L126.895935,172.9" id="Line" stroke="#5A5959" stroke-width="3" stroke-linecap="square"></path>
                    <path d="M3.90406504,223.3 L126.895935,223.3" id="Line" stroke="#5A5959" stroke-width="3" stroke-linecap="square"></path>
                    <path d="M3.90406504,273.3 L126.895935,273.3" id="Line" stroke="#5A5959" stroke-width="3" stroke-linecap="square"></path>
                </g>
            </g>
        </g>
    </g>
</svg>