<?xml version="1.0" encoding="UTF-8"?>
<svg width="437px" height="85px" viewBox="0 0 437 85" version="1.1" xmlns="http://www.w3.org/2000/svg" xmlns:xlink="http://www.w3.org/1999/xlink">
    <!-- Generator: Sketch 47 (45396) - http://www.bohemiancoding.com/sketch -->
    <title>Truck</title>
    <desc>Created with Sketch.</desc>
    <defs></defs>
    <g id="Assets" stroke="none" stroke-width="1" fill="none" fill-rule="evenodd">
        <g id="Truck">
            <g id="Page-1">
                <polygon id="Path" fill="#666666" transform="translate(122.246825, 42.499681) rotate(-90.000000) translate(-122.246825, -42.499681) " points="97.1530746 55.4483192 147.340575 55.4483192 147.340575 29.5510423 97.1530746 29.5510423"></polygon>
                <polygon id="Path" fill="#666666" transform="translate(130.052061, 41.943581) rotate(-90.000000) translate(-130.052061, -41.943581) " points="114.644259 47.1100115 145.459864 47.1100115 145.459864 36.77715 114.644259 36.77715"></polygon>
                <polygon id="Fill-38" fill="#404040" transform="translate(31.594272, 42.331127) rotate(-90.000000) translate(-31.594272, -42.331127) " points="-9.85916228 57.4377654 73.0477061 57.4377654 73.0477061 27.2244885 -9.85916228 27.2244885"></polygon>
                <polygon id="Fill-38" fill="#404040" transform="translate(105.693792, 42.453434) rotate(-90.000000) translate(-105.693792, -42.453434) " points="64.240358 57.5600727 147.147226 57.5600727 147.147226 27.3467957 64.240358 27.3467957"></polygon>
                <path d="M37.9523138,107.623077 L92.6784902,107.623077 C98.397239,107.623077 103.05992,103.055151 103.151482,97.3614695 L105.016089,-9.37361945 C105.082045,-13.1503484 102.900075,-16.6466042 99.4160609,-18.1401429 C94.2016793,-20.3731107 84.2509011,-22.6230769 65.315402,-22.6230769 C46.3799029,-22.6230769 36.4283487,-20.3731107 31.2147431,-18.1401429 C27.7299532,-16.6466042 25.5495348,-13.1503484 25.6154905,-9.37361945 L27.4793215,97.3614695 C27.5708836,103.055151 32.232789,107.623077 37.9523138,107.623077" id="Fill-5" fill="#FCFCFC" transform="translate(65.315789, 42.500000) rotate(-90.000000) translate(-65.315789, -42.500000) "></path>
                <path d="M91.5701754,37.2939638 L86.8770478,53.9923077 C86.8770478,53.9923077 77.6592916,51.9885683 57.7989133,51.9885683 C37.9385351,51.9885683 28.7207789,53.9923077 28.7207789,53.9923077 L23.6929825,37.2939638 C23.6929825,37.2939638 38.2739803,32.2846154 57.6311907,32.2846154 C76.9891776,32.2846154 91.5701754,37.2939638 91.5701754,37.2939638" id="Fill-7" fill="#C5C3C0" transform="translate(57.631579, 43.138462) rotate(-90.000000) translate(-57.631579, -43.138462) "></path>
                <polygon id="Fill-21" fill="#C5C3C0" transform="translate(86.767544, 10.576923) rotate(-90.000000) translate(-86.767544, -10.576923) " points="88.6885965 -6.34230769 84.8464912 0.0480856913 84.8464912 24.939529 88.6885965 27.4961538"></polygon>
                <polygon id="Fill-23" fill="#C5C3C0" transform="translate(86.767544, 75.061538) rotate(-90.000000) translate(-86.767544, -75.061538) " points="84.8464912 58.1423077 88.6885965 64.5327011 88.6885965 89.4241443 84.8464912 91.9807692"></polygon>
                <path d="M149.03952,51.3246106 L145.637282,32.9497577 C145.202465,30.5999134 144.118756,29.7056564 143.229122,30.8921922 C140.656518,34.3240488 134.006117,39.7205609 117.626042,39.7205609 C102.514861,39.7205609 96.0089057,35.1292672 93.2614857,31.7225738 C92.0548135,30.2263385 90.6192513,31.470943 89.9740632,34.5253534 L86.6096033,50.4497097 C86.6096033,50.4497097 88.5429455,54.5551625 91.9844428,54.5551625 L142.072821,54.5551625 C142.072821,54.5551625 146.911362,55.416514 149.03952,51.3246106" id="Fill-36" fill="#ECECEC" transform="translate(117.824561, 42.500000) rotate(-90.000000) translate(-117.824561, -42.500000) "></path>
                <polygon id="Fill-38" fill="#404040" transform="translate(172.685982, 42.668873) rotate(-90.000000) translate(-172.685982, -42.668873) " points="131.232548 57.7755115 214.139417 57.7755115 214.139417 27.5622346 131.232548 27.5622346"></polygon>
                <polygon id="Fill-40" fill="#404040" transform="translate(206.465132, 42.668873) rotate(-90.000000) translate(-206.465132, -42.668873) " points="165.011697 57.7755115 247.918566 57.7755115 247.918566 27.5622346 165.011697 27.5622346"></polygon>
                <polygon id="Fill-41" fill="#404040" transform="translate(360.865895, 42.668873) rotate(-90.000000) translate(-360.865895, -42.668873) " points="319.412461 57.7755115 402.319329 57.7755115 402.319329 27.5622346 319.412461 27.5622346"></polygon>
                <polygon id="Fill-42" fill="#404040" transform="translate(394.645044, 42.668873) rotate(-90.000000) translate(-394.645044, -42.668873) " points="353.19161 57.7755115 436.098478 57.7755115 436.098478 27.5622346 353.19161 27.5622346"></polygon>
                <polygon id="Fill-44" fill="#48B7F3" transform="translate(284.657737, 42.211096) rotate(-90.000000) translate(-284.657737, -42.211096) " points="246.812039 192.616035 322.503434 192.616035 322.503434 -108.193842 246.812039 -108.193842"></polygon>
            </g>
            <path d="M282.71625,47.2935036 C269.30911,60.1438668 249.876278,67 233.144971,67 C209.684981,67 188.564969,55.7167627 172.586864,36.9505398 C171.331516,35.4748301 172.456303,33.4637042 173.962729,34.6129169 C191.206219,47.6591683 212.527099,55.5078136 234.550969,55.5078136 C249.404267,55.5078136 265.74391,51.5116586 280.767945,43.2190033 C283.03762,41.9653036 284.935709,45.1517789 282.71625,47.2935036 Z M288.773273,38.8798264 C287.068698,36.0271275 277.462956,37.5319936 273.151402,38.1993688 C271.837877,38.4087415 271.637346,36.9169628 272.82051,35.8439195 C280.471017,28.8168587 293.024666,30.8451541 294.48859,33.2005934 C295.952506,35.569125 294.107569,51.9917832 286.918296,59.8301552 C285.815341,61.034047 284.762519,60.3928515 285.253841,58.7963789 C286.868163,53.5358964 290.487868,41.7456126 288.773273,38.8798264 Z" id="Combined-Shape" fill="#FFFFFF" transform="translate(233.500000, 49.000000) scale(-1, -1) rotate(-180.000000) translate(-233.500000, -49.000000) "></path>
            <path d="M311.16,33 L306.54,33 L309.03,12.48 C311.22,12 313.8,11.64 315.93,11.64 C320.7,11.64 324.18,13.68 324.18,18.36 C324.18,24.39 320.01,26.46 315,26.46 C314.01,26.46 313.02,26.37 312,26.22 L311.16,33 Z M312.42,22.71 C313.29,22.83 314.13,22.92 314.94,22.92 C317.52,22.92 319.56,22.05 319.56,18.87 C319.56,16.41 317.7,15.72 315.69,15.72 C314.85,15.72 313.98,15.84 313.23,15.99 L312.42,22.71 Z M329.22,33 L330.36,23.7 C331.5,21.78 333.09,21.39 335.34,21.36 L335.19,16.8 C332.79,17.07 331.23,18.15 330.27,19.62 C330.09,18.69 329.88,17.7 329.61,16.92 L326.13,17.55 C326.22,18.27 326.25,18.96 326.25,19.68 C326.25,21.39 326.04,23.07 325.86,24.51 L324.81,33 L329.22,33 Z M341.37,33 C341.22,32.16 341.16,31.23 341.16,30.33 C341.16,29.49 341.22,28.65 341.31,27.87 L342.6,17.16 L338.1,17.94 L336.99,27.09 C336.9,27.87 336.84,28.68 336.84,29.49 C336.84,30.72 336.96,31.92 337.23,33 L341.37,33 Z M340.56,15.36 C342.33,15.36 343.47,14.76 343.47,12.87 C343.47,11.61 342.63,10.92 341.16,10.92 C339.39,10.92 338.25,11.52 338.25,13.41 C338.25,14.67 339.09,15.36 340.56,15.36 Z M367.68,33 L368.73,24.48 C368.79,23.88 368.85,23.25 368.85,22.62 C368.85,19.53 367.71,16.8 364.17,16.8 C361.83,16.8 360.06,17.49 358.89,19.26 C358.23,17.85 357,16.8 354.81,16.8 C352.47,16.8 351,17.64 349.89,19.17 C349.77,18.48 349.59,17.64 349.35,16.92 L345.87,17.55 C345.96,18.27 345.99,18.96 345.99,19.68 C345.99,21.39 345.78,23.07 345.6,24.51 L344.55,33 L348.96,33 L350.28,22.29 C351.06,21.12 351.84,20.34 353.1,20.34 C354.24,20.34 355.2,20.61 355.2,22.2 C355.2,22.38 355.2,22.59 355.17,22.83 L353.94,33 L358.32,33 L359.64,22.29 C360.42,21.12 361.2,20.34 362.46,20.34 C363.93,20.34 364.44,21.21 364.44,22.89 C364.44,23.37 364.38,23.94 364.32,24.57 L363.3,33 L367.68,33 Z M384.21,31.83 C382.44,32.94 380.4,33.36 378.12,33.36 C373.65,33.36 371.49,30.93 371.49,26.73 C371.49,20.16 374.01,16.8 379.77,16.8 C384.39,16.8 385.68,19.62 385.68,23.67 C385.68,24.45 385.65,25.29 385.56,26.16 L375.9,27.15 C375.93,28.95 376.65,29.79 378.96,29.79 C380.34,29.79 381.75,29.43 383.16,28.77 L384.21,31.83 Z M375.99,24.39 L381.54,23.55 C381.57,23.34 381.57,23.13 381.57,22.92 C381.57,21.48 381,20.31 379.32,20.31 C377.55,20.31 376.29,21.33 375.99,24.39 Z" id="Prime" fill="#FFFFFF"></path>
        </g>
    </g>
</svg>