<?xml version="1.0" encoding="UTF-8"?>
<svg width="437px" height="85px" viewBox="0 0 437 85" version="1.1" xmlns="http://www.w3.org/2000/svg" xmlns:xlink="http://www.w3.org/1999/xlink">
    <!-- Generator: Sketch 47 (45396) - http://www.bohemiancoding.com/sketch -->
    <title>Truck</title>
    <desc>Created with Sketch.</desc>
    <defs></defs>
    <g id="Assets" stroke="none" stroke-width="1" fill="none" fill-rule="evenodd">
        <g id="Truck">
            <g id="Page-1" transform="translate(218.000000, 42.500000) scale(-1, 1) translate(-218.000000, -42.500000) ">
                <polygon id="Path" fill="#666666" transform="translate(122.246825, 42.499681) rotate(-90.000000) translate(-122.246825, -42.499681) " points="97.1530746 55.4483192 147.340575 55.4483192 147.340575 29.5510423 97.1530746 29.5510423"></polygon>
                <polygon id="Path" fill="#666666" transform="translate(130.052061, 41.943581) rotate(-90.000000) translate(-130.052061, -41.943581) " points="114.644259 47.1100115 145.459864 47.1100115 145.459864 36.77715 114.644259 36.77715"></polygon>
                <polygon id="Fill-38" fill="#404040" transform="translate(31.594272, 42.331127) rotate(-90.000000) translate(-31.594272, -42.331127) " points="-9.85916228 57.4377654 73.0477061 57.4377654 73.0477061 27.2244885 -9.85916228 27.2244885"></polygon>
                <polygon id="Fill-38" fill="#404040" transform="translate(105.693792, 42.453434) rotate(-90.000000) translate(-105.693792, -42.453434) " points="64.240358 57.5600727 147.147226 57.5600727 147.147226 27.3467957 64.240358 27.3467957"></polygon>
                <path d="M37.9523138,107.623077 L92.6784902,107.623077 C98.397239,107.623077 103.05992,103.055151 103.151482,97.3614695 L105.016089,-9.37361945 C105.082045,-13.1503484 102.900075,-16.6466042 99.4160609,-18.1401429 C94.2016793,-20.3731107 84.2509011,-22.6230769 65.315402,-22.6230769 C46.3799029,-22.6230769 36.4283487,-20.3731107 31.2147431,-18.1401429 C27.7299532,-16.6466042 25.5495348,-13.1503484 25.6154905,-9.37361945 L27.4793215,97.3614695 C27.5708836,103.055151 32.232789,107.623077 37.9523138,107.623077" id="Fill-5" fill="#FCFCFC" transform="translate(65.315789, 42.500000) rotate(-90.000000) translate(-65.315789, -42.500000) "></path>
                <path d="M91.5701754,37.2939638 L86.8770478,53.9923077 C86.8770478,53.9923077 77.6592916,51.9885683 57.7989133,51.9885683 C37.9385351,51.9885683 28.7207789,53.9923077 28.7207789,53.9923077 L23.6929825,37.2939638 C23.6929825,37.2939638 38.2739803,32.2846154 57.6311907,32.2846154 C76.9891776,32.2846154 91.5701754,37.2939638 91.5701754,37.2939638" id="Fill-7" fill="#C5C3C0" transform="translate(57.631579, 43.138462) rotate(-90.000000) translate(-57.631579, -43.138462) "></path>
                <polygon id="Fill-21" fill="#C5C3C0" transform="translate(86.767544, 10.576923) rotate(-90.000000) translate(-86.767544, -10.576923) " points="88.6885965 -6.34230769 84.8464912 0.0480856913 84.8464912 24.939529 88.6885965 27.4961538"></polygon>
                <polygon id="Fill-23" fill="#C5C3C0" transform="translate(86.767544, 75.061538) rotate(-90.000000) translate(-86.767544, -75.061538) " points="84.8464912 58.1423077 88.6885965 64.5327011 88.6885965 89.4241443 84.8464912 91.9807692"></polygon>
                <path d="M149.03952,51.3246106 L145.637282,32.9497577 C145.202465,30.5999134 144.118756,29.7056564 143.229122,30.8921922 C140.656518,34.3240488 134.006117,39.7205609 117.626042,39.7205609 C102.514861,39.7205609 96.0089057,35.1292672 93.2614857,31.7225738 C92.0548135,30.2263385 90.6192513,31.470943 89.9740632,34.5253534 L86.6096033,50.4497097 C86.6096033,50.4497097 88.5429455,54.5551625 91.9844428,54.5551625 L142.072821,54.5551625 C142.072821,54.5551625 146.911362,55.416514 149.03952,51.3246106" id="Fill-36" fill="#ECECEC" transform="translate(117.824561, 42.500000) rotate(-90.000000) translate(-117.824561, -42.500000) "></path>
                <polygon id="Fill-38" fill="#404040" transform="translate(172.685982, 42.668873) rotate(-90.000000) translate(-172.685982, -42.668873) " points="131.232548 57.7755115 214.139417 57.7755115 214.139417 27.5622346 131.232548 27.5622346"></polygon>
                <polygon id="Fill-40" fill="#404040" transform="translate(206.465132, 42.668873) rotate(-90.000000) translate(-206.465132, -42.668873) " points="165.011697 57.7755115 247.918566 57.7755115 247.918566 27.5622346 165.011697 27.5622346"></polygon>
                <polygon id="Fill-41" fill="#404040" transform="translate(360.865895, 42.668873) rotate(-90.000000) translate(-360.865895, -42.668873) " points="319.412461 57.7755115 402.319329 57.7755115 402.319329 27.5622346 319.412461 27.5622346"></polygon>
                <polygon id="Fill-42" fill="#404040" transform="translate(394.645044, 42.668873) rotate(-90.000000) translate(-394.645044, -42.668873) " points="353.19161 57.7755115 436.098478 57.7755115 436.098478 27.5622346 353.19161 27.5622346"></polygon>
                <polygon id="Fill-44" fill="#48B7F3" transform="translate(284.657737, 42.211096) rotate(-90.000000) translate(-284.657737, -42.211096) " points="246.812039 192.616035 322.503434 192.616035 322.503434 -108.193842 246.812039 -108.193842"></polygon>
            </g>
            <path d="M158.670544,51.2935036 C145.263403,64.1438668 125.830571,71 109.099265,71 C85.6392744,71 64.5192629,59.7167627 48.5411577,40.9505398 C47.2858093,39.4748301 48.410597,37.4637042 49.9170227,38.6129169 C67.1605126,51.6591683 88.4813929,59.5078136 110.505262,59.5078136 C125.35856,59.5078136 141.698204,55.5116586 156.722239,47.2190033 C158.991914,45.9653036 160.890002,49.1517789 158.670544,51.2935036 Z M164.727566,42.8798264 C163.022992,40.0271275 153.41725,41.5319936 149.105696,42.1993688 C147.79217,42.4087415 147.591639,40.9169628 148.774803,39.8439195 C156.425311,32.8168587 168.97896,34.8451541 170.442883,37.2005934 C171.906799,39.569125 170.061862,55.9917832 162.872589,63.8301552 C161.769635,65.034047 160.716812,64.3928515 161.208135,62.7963789 C162.822457,57.5358964 166.442161,45.7456126 164.727566,42.8798264 Z" id="Combined-Shape" fill="#FFFFFF" transform="translate(109.454294, 53.000000) scale(-1, -1) rotate(-180.000000) translate(-109.454294, -53.000000) "></path>
            <path d="M186.62,37.08 L182,37.08 L184.49,16.56 C186.68,16.08 189.26,15.72 191.39,15.72 C196.16,15.72 199.64,17.76 199.64,22.44 C199.64,28.47 195.47,30.54 190.46,30.54 C189.47,30.54 188.48,30.45 187.46,30.3 L186.62,37.08 Z M187.88,26.79 C188.75,26.91 189.59,27 190.4,27 C192.98,27 195.02,26.13 195.02,22.95 C195.02,20.49 193.16,19.8 191.15,19.8 C190.31,19.8 189.44,19.92 188.69,20.07 L187.88,26.79 Z M204.68,37.08 L205.82,27.78 C206.96,25.86 208.55,25.47 210.8,25.44 L210.65,20.88 C208.25,21.15 206.69,22.23 205.73,23.7 C205.55,22.77 205.34,21.78 205.07,21 L201.59,21.63 C201.68,22.35 201.71,23.04 201.71,23.76 C201.71,25.47 201.5,27.15 201.32,28.59 L200.27,37.08 L204.68,37.08 Z M216.83,37.08 C216.68,36.24 216.62,35.31 216.62,34.41 C216.62,33.57 216.68,32.73 216.77,31.95 L218.06,21.24 L213.56,22.02 L212.45,31.17 C212.36,31.95 212.3,32.76 212.3,33.57 C212.3,34.8 212.42,36 212.69,37.08 L216.83,37.08 Z M216.02,19.44 C217.79,19.44 218.93,18.84 218.93,16.95 C218.93,15.69 218.09,15 216.62,15 C214.85,15 213.71,15.6 213.71,17.49 C213.71,18.75 214.55,19.44 216.02,19.44 Z M243.14,37.08 L244.19,28.56 C244.25,27.96 244.31,27.33 244.31,26.7 C244.31,23.61 243.17,20.88 239.63,20.88 C237.29,20.88 235.52,21.57 234.35,23.34 C233.69,21.93 232.46,20.88 230.27,20.88 C227.93,20.88 226.46,21.72 225.35,23.25 C225.23,22.56 225.05,21.72 224.81,21 L221.33,21.63 C221.42,22.35 221.45,23.04 221.45,23.76 C221.45,25.47 221.24,27.15 221.06,28.59 L220.01,37.08 L224.42,37.08 L225.74,26.37 C226.52,25.2 227.3,24.42 228.56,24.42 C229.7,24.42 230.66,24.69 230.66,26.28 C230.66,26.46 230.66,26.67 230.63,26.91 L229.4,37.08 L233.78,37.08 L235.1,26.37 C235.88,25.2 236.66,24.42 237.92,24.42 C239.39,24.42 239.9,25.29 239.9,26.97 C239.9,27.45 239.84,28.02 239.78,28.65 L238.76,37.08 L243.14,37.08 Z M259.67,35.91 C257.9,37.02 255.86,37.44 253.58,37.44 C249.11,37.44 246.95,35.01 246.95,30.81 C246.95,24.24 249.47,20.88 255.23,20.88 C259.85,20.88 261.14,23.7 261.14,27.75 C261.14,28.53 261.11,29.37 261.02,30.24 L251.36,31.23 C251.39,33.03 252.11,33.87 254.42,33.87 C255.8,33.87 257.21,33.51 258.62,32.85 L259.67,35.91 Z M251.45,28.47 L257,27.63 C257.03,27.42 257.03,27.21 257.03,27 C257.03,25.56 256.46,24.39 254.78,24.39 C253.01,24.39 251.75,25.41 251.45,28.47 Z" id="Prime" fill="#FFFFFF"></path>
        </g>
    </g>
</svg>